<svg xmlns="http://www.w3.org/2000/svg" viewBox="24.90 22.70 54.60 54.60"><path fill="#1F3A5F" fill-rule="evenodd" d="M 43.935,43.976 L 43.935,41.903 L 42.507000000000005,41.903 C 41.77700000000001,41.903 41.185,41.311 41.185,40.580999999999996 C 41.185,39.85099999999999 41.777,39.25899999999999 42.507000000000005,39.25899999999999 L 48.172000000000004,39.25899999999999 C 48.902,39.25899999999999 49.49400000000001,39.85099999999999 49.49400000000001,40.580999999999996 C 49.49400000000001,41.311 48.90200000000001,41.903 48.172000000000004,41.903 L 46.578,41.903 L 46.578,43.975 L 51.272000000000006,43.975 C 51.56400000000001,43.975 51.848000000000006,44.073 52.07900000000001,44.251000000000005 L 55.979000000000006,47.266000000000005 L 68.998,41.63700000000001 C 69.15,41.571000000000005 69.31400000000001,41.53500000000001 69.48,41.53000000000001 L 69.503,41.53000000000001 C 69.877,41.49400000000001 70.248,41.61900000000001 70.524,41.87300000000001 L 73.506,44.616000000000014 C 74.036,45.106000000000016 74.074,45.932000000000016 73.591,46.469000000000015 C 73.577,46.487000000000016 73.56099999999999,46.503000000000014 73.54499999999999,46.51900000000001 C 73.05199999999999,47.01400000000001 72.25899999999999,47.04000000000001 71.73399999999998,46.57800000000001 L 69.79099999999998,44.85500000000001 L 58.46599999999998,60.19700000000001 C 58.21599999999998,60.53400000000001 57.82199999999998,60.73300000000001 57.40199999999998,60.73300000000001 L 37.726999999999975,60.73300000000001 C 36.99699999999998,60.735000000000014 36.403999999999975,60.14400000000001 36.40299999999998,59.41500000000001 L 36.40299999999998,50.07200000000002 L 28.669999999999977,47.09600000000002 C 28.159999999999975,46.90000000000002 27.822999999999976,46.41000000000002 27.822999999999976,45.86400000000002 L 27.822999999999976,42.34300000000002 C 27.822999999999976,42.24800000000002 27.832999999999977,42.15300000000002 27.852999999999977,42.06000000000002 C 28.009999999999977,41.347000000000016 28.714999999999975,40.896000000000015 29.427999999999976,41.052000000000014 L 38.013999999999974,42.94400000000002 C 38.52499999999998,43.05900000000002 38.918999999999976,43.46400000000002 39.019999999999975,43.978000000000016 L 43.93599999999998,43.978000000000016 L 43.935,43.976 M 73.781,57.882 C 75.241,57.961 76.49000000000001,56.842 76.569,55.381 C 76.574,55.285000000000004 76.574,55.189 76.569,55.094 C 76.57300000000001,53.398 74.83500000000001,51.237 73.925,50.052 C 73.017,51.238 71.28099999999999,53.397999999999996 71.28099999999999,55.094 C 71.202,56.554 72.321,57.803000000000004 73.782,57.882 L 73.781,57.882"/></svg>