<?xml version="1.0" encoding="UTF-8"?><svg id="canceller" xmlns="http://www.w3.org/2000/svg" viewBox="0 0 100 100">
    <path
        d="M27.65,61.148l9.528-22.522c.562-1.33,1.482-1.33,2.046,0l9.534,22.522c.564,1.33-.093,2.029-1.459,1.558l-6.613-2.295c-1.621-.47-3.342-.47-4.962,0l-6.613,2.295c-1.367,.469-2.023-.229-1.46-1.558ZM76.412,25.664v48.673c0,2.694-2.184,4.878-4.878,4.878H4.878c-2.694,0-4.878-2.184-4.878-4.878V25.664c0-2.694,2.184-4.878,4.878-4.878H71.534c2.694,0,4.877,2.184,4.877,4.878ZM5.888,27.188l.004,22.299,9.276-3.17,8.033-19.128H5.888Zm36.05,46.287c0-1.045-.847-1.891-1.891-1.891h-3.685c-1.045,0-1.891,.847-1.891,1.891s.847,1.891,1.891,1.891h3.685c1.045,0,1.891-.847,1.891-1.891Zm28.58-42.664l-13.311,4.553,11.74,32.671h1.569l.002-37.224Zm.001-3.622H26.714l-7.442,17.724,14.891-5.094-1.698,4.007L5.889,52.91v15.124h30.7v-5.513c1.075-.131,2.161-.131,3.236,0v5.513h25.679l-11.363-31.622-11.651,3.982-1.268-2.988,29.295-10.018,.003-.201Zm28.285,17.423l-8.769,.351,.301,4.72,2.42-.098c.318,9.002-3.148,15.654-6.805,22.675-.934,1.792-1.877,3.604-2.766,5.474,.341,.042,.68,.07,1.023,.123,1.126,.133,2.238,.313,3.334,.524,.786-1.63,1.61-3.225,2.439-4.807,3.038-5.829,6.156-11.814,6.958-19.213,.177-1.644,.234-3.298,.171-4.951l2.008-.08-.312-4.719Zm1.196-.786l-.944-14.741-11.172,.515,.944,14.741,11.172-.515Zm-11-15.017l-.303-4.72,8.771-.351,.301,4.718-8.769,.353Zm6.77-4.576l.224,3.482,.74-.03-.224-3.48-.74,.029Zm-3.031,.122l.222,3.482,.74-.03-.222-3.482-.74,.03Zm-3.031,.122l.224,3.482,.739-.03-.222-3.482-.74,.03Z"
        fill="#003b8b" />
</svg>