<svg id="icon" xmlns="http://www.w3.org/2000/svg" width="100" height="80" viewBox="0 0 100 80">
  <rect id="Rectangle_149" data-name="Rectangle 149" width="100" height="80" fill="#fff"/>
  <path id="vacuum_cleaner" d="M70.5,64.432a11.842,11.842,0,0,1,3.334-7.546A14.253,14.253,0,0,1,91.73,54.941a6.947,6.947,0,0,0,.061-.745c-.083-2.248-.012-4.513-.3-6.736a3.836,3.836,0,0,0-4.075-3.545c-.056,0-.112,0-.17.009-4.3-.115-8.6-.093-12.905-.111a39.379,39.379,0,0,0-8.619.521,34.562,34.562,0,0,0-14.17,7.119c-.24.19-.491.371-.818.62a10.818,10.818,0,0,1,.765-8.941,17.289,17.289,0,0,1,5.037-5.462c2.623-1.9,5.377-3.653,8.092-5.444a33.745,33.745,0,0,0,6.584-5.208A13.494,13.494,0,0,0,69.614,7.064l-.053-.043A14.909,14.909,0,0,0,52.6,6.631a23.069,23.069,0,0,0-7.927,8.9c-.687,1.263-1.251,2.585-1.919,3.984l4.556,1.378c.134-.292.26-.555.376-.819a23.729,23.729,0,0,1,5.083-7.752,11.564,11.564,0,0,1,7.936-3.674,8.978,8.978,0,0,1,9.267,7.576A9.426,9.426,0,0,1,66.4,25.258c-2.271,1.818-4.762,3.411-7.222,5.007a53.985,53.985,0,0,0-7.944,5.892,17.463,17.463,0,0,0-5.581,9.169A16.211,16.211,0,0,0,46.7,54.864a1.032,1.032,0,0,1-.253,1.292,31.847,31.847,0,0,0-5.238,6.806,9.633,9.633,0,0,0-1.275,5.892,6.608,6.608,0,0,0,6.705,5.552c3.946.066,7.9.027,11.846.027h15.3c.282,0,.563-.025,1-.045A12.157,12.157,0,0,1,70.5,64.443m1.195-27.2c-.029.765,0,1.53,0,2.4h1.032c3.8,0,7.6-.018,11.4.018.741,0,1-.2.937-.88-.053-.516,0-1.043-.019-1.564a2.09,2.09,0,0,0-2.127-2.062h-.051q-4.506-.054-9.015,0A2.072,2.072,0,0,0,71.7,37.136v.1M31.826,63.68C36.6,50.421,40.86,38.254,45.734,24.8L41.188,23.42C36.323,36.835,32.073,49,27.272,62.29Zm-1.2,3.314.029-.081L26.1,65.518a.157.157,0,0,1-.024.063c-1.95-.858-3.687-.072-5.457.512-3.3,1.084-6.589,2.214-9.913,3.235A4.761,4.761,0,0,0,7.54,73.078c-.187.62.272,1,1.129,1,2.3.011,4.6,0,6.9,0H24.03v-.136a3.1,3.1,0,0,1,6.185-.134v.269h.211c1.549,0,2.018-.435,2.021-1.852,0-.878-.034-1.759.012-2.635A2.35,2.35,0,0,0,30.631,67M84.2,57.965A7.751,7.751,0,1,0,92.5,65.7h0a8.029,8.029,0,0,0-8.3-7.732M27.163,72.007a1.919,1.919,0,1,0,2.052,1.917,1.987,1.987,0,0,0-2.052-1.917h0" transform="translate(-0.499 -0.006)" fill="#333"/>
</svg>
