<?xml version="1.0" encoding="UTF-8"?><svg id="drive_recorder" xmlns="http://www.w3.org/2000/svg" viewBox="0 0 100 100">
    <path
        d="M39.789,41.213c-9.187,0-16.635,7.448-16.635,16.635,0,9.187,7.448,16.635,16.635,16.635,9.187,0,16.635-7.448,16.635-16.635h0c0-9.187-7.448-16.635-16.635-16.635Zm9.004,16.362c0,4.973-4.031,9.004-9.004,9.004s-9.004-4.031-9.004-9.004c0-4.973,4.031-9.004,9.004-9.004,4.973,0,9.004,4.031,9.004,9.004h0Zm16.948-25.801h-21.331v-5.524h-5.77v-4.184h12.906c2.269,0,4.109-1.84,4.109-4.109v-2.739H13.835v2.739c0,2.269,1.84,4.109,4.109,4.109h12.906v4.184h-5.77v5.524H3.749C1.682,31.781,.008,33.454,0,35.522v44.106c.007,2.068,1.682,3.743,3.751,3.749h61.99c2.069-.005,3.745-1.681,3.751-3.749V35.522c-.007-2.068-1.683-3.743-3.751-3.748Zm-51.94,6.183H7.252c-1.104,0-2-.895-2-2s.895-2,2-2h6.549c1.105,0,2,.895,2,2s-.895,2-2,2Zm25.988,42.585v.002c-12.533,0-22.692-10.162-22.692-22.695s10.162-22.692,22.695-22.692c12.532,0,22.692,10.161,22.692,22.693-.002,12.533-10.162,22.692-22.695,22.692Zm60.17-5.069c.012,3.352-1.537,6.519-4.19,8.568-.131,.114-.298,.177-.471,.179-.401,.003-.728-.32-.731-.72l.003-4.812c.007-.643-.34-1.239-.904-1.549l-2.685-1.468c-.737-.39-1.629-.344-2.322,.12l-2.687,1.745c-.559,.361-.899,.978-.905,1.643l-.004,4.811c.003,.156-.041,.308-.126,.439-.235,.36-.717,.462-1.077,.227-2.679-1.831-4.25-4.894-4.175-8.138,.158-3.127,1.589-6.053,3.959-8.099,2.212-2.069,2.499-2.946,2.5-4.546l.01-14.866,.008-10.87c.001-1.602-.285-2.45-2.498-4.293-2.393-1.85-3.839-4.668-3.947-7.69-.011-3.352,1.537-6.519,4.19-8.568,.131-.114,.298-.177,.471-.179,.401-.003,.728,.32,.731,.72l-.004,5.901c-.007,.643,.34,1.239,.904,1.549l2.684,1.466c.737,.389,1.629,.343,2.322-.12l2.689-1.744c.559-.36,.899-.978,.905-1.643l.003-5.9c-.003-.156,.041-.308,.126-.439,.235-.36,.717-.462,1.077-.227,2.68,1.828,4.254,4.886,4.184,8.129-.157,3.132-1.59,6.063-3.966,8.11-2.212,2.069-2.499,2.946-2.5,4.546l-.008,10.87-.01,14.864c-.002,1.601,.284,2.449,2.497,4.292,2.393,1.85,3.84,4.668,3.948,7.691Z"
        fill="#003b8b" />
</svg>