<svg id="icon" xmlns="http://www.w3.org/2000/svg" width="100" height="100" viewBox="0 0 100 100">
  <rect id="Rectangle_171" data-name="Rectangle 171" width="100" height="100" fill="none"/>
  <path id="headlight" d="M29.776,15.283H3.5V33.855c0,13.688,10.446,24.765,23.355,24.765H91.086c0-24.765-29.2-43.341-61.31-43.341m15.467,23.6a16.832,16.832,0,1,1,1.321-6.535,16.833,16.833,0,0,1-1.321,6.535M74.9,42.445a10.983,10.983,0,1,1,.86-4.263,10.982,10.982,0,0,1-.86,4.263M29.771,19.939a12.4,12.4,0,1,0,8.781,3.637,12.4,12.4,0,0,0-8.781-3.637M64.813,31.62a6.57,6.57,0,1,0,6.57,6.57,6.57,6.57,0,0,0-6.57-6.57m37.6-.523c-3.181-1.212-3.639-1.63-4.66-4.446a1.716,1.716,0,0,0-1.621-1.112h-.084a1.722,1.722,0,0,0-1.621,1.109,5.687,5.687,0,0,1-4.546,4.423A1.672,1.672,0,0,0,88.7,32.645v.028a1.674,1.674,0,0,0,1.263,1.6,6.006,6.006,0,0,1,4.5,4.351,1.714,1.714,0,0,0,1.656,1.219h.023a1.722,1.722,0,0,0,1.628-1.126,5.7,5.7,0,0,1,4.556-4.4,1.662,1.662,0,0,0,1.181-1.574v-.093a1.661,1.661,0,0,0-1.088-1.544M80.51,15.618A4.268,4.268,0,0,1,83.7,18.706a1.211,1.211,0,0,0,1.181.865H84.9a1.215,1.215,0,0,0,1.153-.8,4.043,4.043,0,0,1,3.235-3.123,1.179,1.179,0,0,0,.84-1.121v-.067a1.178,1.178,0,0,0-.774-1.1c-2.258-.86-2.584-1.156-3.309-3.149a1.221,1.221,0,0,0-1.153-.788h-.058a1.218,1.218,0,0,0-1.146.788,4.042,4.042,0,0,1-3.228,3.139,1.178,1.178,0,0,0-.844,1.121v.019a1.178,1.178,0,0,0,.9,1.135" transform="translate(-3.5 15.978)" fill="#003b8b"/>
</svg>
