<svg xmlns="http://www.w3.org/2000/svg" width="50" height="53.122" viewBox="0 0 50 53.122">
  <g id="Group_180" data-name="Group 180" transform="translate(-22 715)">
    <path id="Path_142" data-name="Path 142" d="M13.065,4.091H8.973a10.62,10.62,0,0,0-.495-1.166l-.88.154A7.234,7.234,0,0,1,8.1,4.091H3.924V6.445h.814V4.861h7.513V6.456h.814ZM3.66,7.149v.77H6.311c-.352.605-.726,1.221-1.122,1.837,1.023.33,2.046.715,3.08,1.155A7.4,7.4,0,0,1,3.7,12.264L4.166,13a7.453,7.453,0,0,0,4.906-1.738,38.036,38.036,0,0,1,3.5,1.826L13.1,12.4A34.7,34.7,0,0,0,9.644,10.68a9.492,9.492,0,0,0,1.551-2.761h2.167v-.77H7.675q.4-.726.825-1.551l-.814-.242c-.3.594-.616,1.188-.946,1.793Zm3.586.77h3.08A7.636,7.636,0,0,1,8.874,10.35a23.827,23.827,0,0,0-2.552-.913Q6.751,8.777,7.246,7.919Zm13.662,4.818a1.158,1.158,0,0,0,.979-.418,6.99,6.99,0,0,0,.473-2.75l-.748-.253a8.151,8.151,0,0,1-.286,2.321.586.586,0,0,1-.561.319H18.7q-.594,0-.594-.495V5.312h-.792v6.314a1,1,0,0,0,1.144,1.111ZM15.683,6.489A20.638,20.638,0,0,1,14.44,11.1l.682.429a21.712,21.712,0,0,0,1.32-4.884Zm7.084-.341L22,6.4a32.783,32.783,0,0,1,1.881,4.642l.726-.33A34.662,34.662,0,0,0,22.767,6.148Zm-3.96-3.091-.66.407a21.213,21.213,0,0,1,2.332,2.849l.66-.451A22.544,22.544,0,0,0,18.807,3.057Zm11.121-.022V6.247H26.936V9.778h7.282V6.247H30.709V4.85h4.268V4.1H30.709V3.035Zm3.5,6.006h-5.7V6.995h5.7Zm-6.512,1.221A9.478,9.478,0,0,1,25.5,12.594l.649.473a11.444,11.444,0,0,0,1.441-2.486Zm2.4.319-.737.154a19.974,19.974,0,0,1,.539,2.387l.792-.176C29.73,12.1,29.532,11.307,29.312,10.581Zm2.3-.11-.748.154a13.044,13.044,0,0,1,.825,2.475l.781-.176A17.785,17.785,0,0,0,31.611,10.471Zm2.255-.22-.638.407a18.116,18.116,0,0,1,1.584,2.464l.66-.462A19.74,19.74,0,0,0,33.866,10.251Zm7.326-4.488v.66h1.5V7.468H40.477v2.6h1.947a4.209,4.209,0,0,1-.374.847,4.5,4.5,0,0,1-2.266,1.551l.407.638A4.74,4.74,0,0,0,42.6,11.417a5.012,5.012,0,0,0,.572-1.353,5.155,5.155,0,0,0,2.816,2.992l.418-.671a4.388,4.388,0,0,1-2.552-2.321h1.782v-2.6H43.4V6.423h1.606V5.73H41.236a8.313,8.313,0,0,0,1.925-1.9,7.335,7.335,0,0,0,2.915,2.541l.429-.649a7.312,7.312,0,0,1-3-2.618H42.82a7.659,7.659,0,0,1-3.069,2.607V5.169H38.717V3.024h-.792V5.169H36.649v.759h1.265A11.977,11.977,0,0,1,36.44,9.767l.341.869a14.74,14.74,0,0,0,1.144-2.783v5.192h.792V7.314q.346.594.825,1.518l.44-.671c-.429-.594-.847-1.144-1.265-1.628V5.928h1.034V5.741l.418.627A9.6,9.6,0,0,0,41.192,5.763ZM44.932,9.4H43.3a8.869,8.869,0,0,0,.1-1.122V8.117h1.529Zm-2.354,0H41.17V8.117h1.518v.165A7.183,7.183,0,0,1,42.578,9.4Z" transform="translate(22 -675)" fill="#333"/>
    <g id="icon" transform="translate(22 -715)">
      <rect id="Rectangle_149" data-name="Rectangle 149" width="50" height="40" fill="none"/>
      <path id="safety_check" d="M35.8,16.087a5.707,5.707,0,0,0,4.43-1.472,5.369,5.369,0,0,0,1.573-4.572.456.456,0,0,0-.516-.388.462.462,0,0,0-.26.13l-2.151,2.151a.908.908,0,0,1-.868.237l-1.836-.463a.87.87,0,0,1-.632-.632l-.459-1.832a.908.908,0,0,1,.237-.868l2.152-2.151a.456.456,0,0,0-.259-.775,5.367,5.367,0,0,0-4.57,1.573,5.713,5.713,0,0,0-1.472,4.431c.1,1.561-.118,1.99-.716,2.589l-3.668,3.668-5.81-5.986a.986.986,0,0,0,.256-.805A2.471,2.471,0,0,1,22,8.647c1.747-1.633,4.163-1.687,5.826-1.593a.345.345,0,0,0,.351-.227V6.819a.4.4,0,0,0-.2-.489l0,0c-6.373-3.287-10.866.545-10.866.545l-.466.435a.942.942,0,0,0-1.188.07l-1.391,1.3a.941.941,0,0,0-.151,1.179l-.278.26a.8.8,0,0,0-.237.66,2.484,2.484,0,0,1-2.28,2.672,2.518,2.518,0,0,1-.569-.02.775.775,0,0,0-.655.187L8.383,15.036a.79.79,0,0,0-.111,1A12.45,12.45,0,0,0,9.748,18,12.493,12.493,0,0,0,11.609,19.6a.789.789,0,0,0,1-.043l1.513-1.413a.775.775,0,0,0,.231-.641,2.484,2.484,0,0,1,2.838-2.664.8.8,0,0,0,.675-.193l.166-.156,5.672,6.3-2.87,2.87c-.6.6-1.091.876-2.652.779a5.437,5.437,0,0,0-4.307,1.472,5.233,5.233,0,0,0-.174,7.4l.064.066.055.054.054.054a5.233,5.233,0,0,0,7.4-.044c.022-.022.044-.044.065-.067a5.437,5.437,0,0,0,1.472-4.3h0c-.1-1.561.181-2.053.779-2.652L26.316,23.7l9.2,10.225a2.51,2.51,0,0,0,3.544.19l.035-.032v0a2.51,2.51,0,0,0,.124-3.547l-.036-.038L29.5,20.512,33.21,16.8c.6-.6,1.026-.813,2.589-.716ZM20.319,29.448l-.474,1.77a.99.99,0,0,1-.7.7l-1.77.474a.989.989,0,0,1-.956-.256h0l-1.3-1.3a.989.989,0,0,1-.256-.956l.474-1.77a.988.988,0,0,1,.7-.7l1.77-.474a.989.989,0,0,1,.956.256l1.3,1.3a.991.991,0,0,1,.257.956Z" transform="translate(0.001 -0.001)" fill="#333"/>
    </g>
  </g>
</svg>
