<svg xmlns="http://www.w3.org/2000/svg" width="108" height="53.1" viewBox="0 0 108 53.1">
  <g id="Group_180" data-name="Group 180" transform="translate(-6106 -532)">
    <g id="icon" transform="translate(6106 532)">
      <path id="Path_139" data-name="Path 139" d="M4.694,5.609V9.888H8.126v.946H3.638v.77H8.126v1.5h.8V11.6h4.444v-.77H8.929V9.888h3.4V5.609h-3.4V4.685h4.29V3.937H8.929V3h-.8v.935H3.792v.748H8.126v.924Zm6.875,3.542H8.929V8.106h2.64Zm-3.443,0H5.453V8.106H8.126ZM5.453,7.391V6.335H8.126V7.391ZM8.929,6.335h2.64V7.391H8.929ZM21,3.035V13.089h.814V7.237a28.853,28.853,0,0,1,2.3,2.123l.484-.726c-.946-.847-1.87-1.606-2.783-2.277V3.035ZM16.552,7.4l-.418.616a8.582,8.582,0,0,1,1.738,1.166,9.255,9.255,0,0,1-3.223,2.97l.539.671a9.591,9.591,0,0,0,4.84-7.557V4.575H17.355a13.352,13.352,0,0,0,.4-1.419l-.792-.132a8.919,8.919,0,0,1-2.552,4.73l.539.671a8.784,8.784,0,0,0,2.123-3.091h2.178a9.873,9.873,0,0,1-1.012,3.223A9.109,9.109,0,0,0,16.552,7.4ZM26.43,3.167l-.561.539a10.536,10.536,0,0,1,1.7,1.441l.572-.561A10.518,10.518,0,0,0,26.43,3.167ZM26.188,5.8l-.572.55a11.054,11.054,0,0,1,1.738,1.606l.561-.561A12.337,12.337,0,0,0,26.188,5.8Zm.968,2.915a36.7,36.7,0,0,1-1.54,3.894l.792.341A36.853,36.853,0,0,0,27.86,9Zm2.629-3.256h1.749V7.523H28.377v.759h2.057a6.292,6.292,0,0,1-.4,2.2,4.207,4.207,0,0,1-2.134,1.98l.528.638a4.582,4.582,0,0,0,2.387-2.42,7.989,7.989,0,0,0,.385-2.4h1.342v3.663a1.054,1.054,0,0,0,.231.693.83.83,0,0,0,.66.264h.88a.926.926,0,0,0,.781-.308,5.606,5.606,0,0,0,.352-2.057l-.726-.242a4.753,4.753,0,0,1-.231,1.738.489.489,0,0,1-.352.143h-.462c-.242,0-.352-.143-.352-.418V8.282h1.947V7.523H32.348V5.455h2.42V4.7h-2.42V3.068h-.814V4.7h-1.5c.121-.385.231-.781.319-1.2l-.77-.165a10.4,10.4,0,0,1-1.221,3.2l.715.451A11.506,11.506,0,0,0,29.785,5.455Zm7.909.154V9.888h3.432v.946H36.638v.77h4.488v1.5h.8V11.6h4.444v-.77H41.929V9.888h3.4V5.609h-3.4V4.685h4.29V3.937h-4.29V3h-.8v.935H36.792v.748h4.334v.924Zm6.875,3.542h-2.64V8.106h2.64Zm-3.443,0H38.453V8.106h2.673Zm-2.673-1.76V6.335h2.673V7.391Zm3.476-1.056h2.64V7.391h-2.64Z" transform="translate(0 40)" fill="#333"/>
      <g id="icon-2" data-name="icon">
        <rect id="Rectangle_149" data-name="Rectangle 149" width="50" height="40" fill="none"/>
        <path id="car_wash" d="M40.575,9.89l-.006-.007-4.759-6.3a.388.388,0,0,0-.495-.106.467.467,0,0,0-.047.03l-10.65,8.048a.386.386,0,0,0-.075.541l1.286,1.7c-1.9-.179-4.121-.18-5.279-.18-1.979,0-7.075,0-8.312.891-.943.679-2.432,3.917-3.086,5.417l-.443-.414a1.368,1.368,0,0,0-.933-.368H6.034a1.05,1.05,0,0,0-.277,2.058l2.121.582L6.469,23.407a3.9,3.9,0,0,0-.96,2.562V35.7a.865.865,0,0,0,.865.865H9.825a.864.864,0,0,0,.86-.865V33.959H30.417V35.7a.865.865,0,0,0,.865.865h3.451a.864.864,0,0,0,.86-.865V25.969a3.9,3.9,0,0,0-.959-2.563l-1.408-1.615,2.121-.582a1.049,1.049,0,0,0-.279-2.061H33.325a1.365,1.365,0,0,0-.933.368l-.443.414c-.251-.577-.627-1.41-1.046-2.256l.276-.208a5.05,5.05,0,0,1-.7-1.083c-.566-1.2-1.106-2.29-1.865-3.765a.81.81,0,0,1-.056-.694.882.882,0,0,1,.557-.48,1,1,0,0,1,.209-.047,1.237,1.237,0,0,1,.6.094,1.8,1.8,0,0,1,.942.885c-.1-.911-.247-2.1-.352-2.956-.056-.473-.1-.878-.124-1.041a.979.979,0,0,1,.777-1.071c.029-.006.06-.011.09-.015a.934.934,0,0,1,.51.082.985.985,0,0,1,.857-.818,1.111,1.111,0,0,1,.288.005.936.936,0,0,1,.751.6,1.058,1.058,0,0,1,.515-.2c.03,0,.06-.006.09-.007a.989.989,0,0,1,1.04.934V7.89l.032.278a1.033,1.033,0,0,1,.424-.163.987.987,0,0,1,.762.178,1.033,1.033,0,0,1,.39.727c.085.7.167,1.41.246,2.094l.209,1.787,3.122-2.36a.387.387,0,0,0,.076-.541ZM13.107,15.723h0c.141-.1,1.166-.611,7.442-.611a41.044,41.044,0,0,1,6.53.345L29.3,18.4a.383.383,0,0,0,.316.146q.669,1.276,1.248,2.6a98.934,98.934,0,0,0-20.631,0A39.729,39.729,0,0,1,13.107,15.723ZM11.958,26.59c0,1.059-1.155,1.533-2.513,1.323A2.04,2.04,0,0,1,7.527,26a1.918,1.918,0,0,1,1.918-1.918,2.463,2.463,0,0,1,2.513,2.412v.1Zm12.157,3.767a.335.335,0,0,1-.335.335H17.318a.335.335,0,0,1-.331-.335V29.145a.335.335,0,0,1,.335-.335h6.464a.335.335,0,0,1,.335.335Zm7.543-6.28a1.918,1.918,0,0,1,1.918,1.918l0,0a2.041,2.041,0,0,1-1.916,1.921c-1.359.209-2.513-.264-2.513-1.323a2.463,2.463,0,0,1,2.412-2.513h.1Zm5.529-9.89a6.208,6.208,0,0,1-.13,2.087,2.9,2.9,0,0,1-1,1.6,3.181,3.181,0,0,1-1.642.677A3.024,3.024,0,0,1,32,17.825a5.13,5.13,0,0,1-1.2-1.589c-.567-1.2-1.108-2.3-1.87-3.776a.478.478,0,0,1-.043-.4.531.531,0,0,1,.345-.282.656.656,0,0,1,.138-.031.9.9,0,0,1,.438.073,1.546,1.546,0,0,1,.824.846c.082.17.183.336.28.5a5.623,5.623,0,0,1,.3.537c.041.086.082.081.095.079a.1.1,0,0,0,.023-.006c.03-.012.034-.025.029-.1v-.021c-.025-.46-.539-4.665-.61-5.3a.632.632,0,0,1,.5-.692l.06-.01.039,0a.651.651,0,0,1,.667.635c.178,1.516.312,2.677.434,3.765a.184.184,0,0,0,.037.115.081.081,0,0,0,.061.009.1.1,0,0,0,.069-.03.163.163,0,0,0,.011-.113c-.055-.415-.1-.838-.152-1.247-.012-.109-.025-.218-.038-.327L32.376,9.9l-.013-.11c-.082-.7-.167-1.42-.245-2.129l-.006-.038a.651.651,0,0,1,.564-.727.764.764,0,0,1,.2,0,.659.659,0,0,1,.547.655c.18,1.54.343,2.948.5,4.306l0,0c.008.072.018.152.053.18a.089.089,0,0,0,.069.012.084.084,0,0,0,.056-.022.252.252,0,0,0,0-.132c0-.017,0-.034-.007-.051-.154-1.3-.305-2.571-.446-3.838,0-.013,0-.026,0-.039a.635.635,0,0,1,.586-.68l.063-.005h.031a.643.643,0,0,1,.652.633c.083.739.166,1.481.246,2.2l.009.076q.083.745.166,1.49l0,.007c0,.054.012.126.041.149a.085.085,0,0,0,.07.006c.067-.013.1-.035.076-.195-.11-.846-.212-1.723-.305-2.609,0-.006,0-.012,0-.017a.622.622,0,0,1,.546-.689.661.661,0,0,1,.108-.012.63.63,0,0,1,.646.614c.086.7.167,1.408.246,2.094l.085.739c.032.277.062.535.092.785.063.532.123,1.033.185,1.627ZM45,13.446l-1.919,1.323-.9,2.149L40.857,15l-2.15-.9,1.919-1.323.9-2.15,1.323,1.919,2.15.9Zm-4.006,8.409,1.273.534-1.132.783L40.6,24.446l-.784-1.136-1.274-.535,1.134-.782.535-1.274L41,21.855Z" transform="translate(0 0.001)" fill="#333"/>
      </g>
    </g>
    <g id="icon-3" data-name="icon" transform="translate(6164 532)">
      <path id="Path_140" data-name="Path 140" d="M4.694,5.609V9.888H8.126v.946H3.638v.77H8.126v1.5h.8V11.6h4.444v-.77H8.929V9.888h3.4V5.609h-3.4V4.685h4.29V3.937H8.929V3h-.8v.935H3.792v.748H8.126v.924Zm6.875,3.542H8.929V8.106h2.64Zm-3.443,0H5.453V8.106H8.126ZM5.453,7.391V6.335H8.126V7.391ZM8.929,6.335h2.64V7.391H8.929ZM19.467,7.523a21.959,21.959,0,0,1,2.519,3l.594-.605A24.911,24.911,0,0,0,19.7,6.731a11.31,11.31,0,0,0,.209-1.177h3.146v6.138a.475.475,0,0,1-.528.539l-1.683-.044.22.792h1.727a.967.967,0,0,0,1.067-1.111V4.784H20c.044-.55.077-1.155.077-1.8h-.8c0,.638-.033,1.243-.088,1.8H15.155v8.3h.8V5.554h3.135a11.512,11.512,0,0,1-.3,1.4A5.766,5.766,0,0,1,16.354,10l.528.649A6.236,6.236,0,0,0,19.467,7.523ZM26.54,3.156l-.561.55a10.473,10.473,0,0,1,1.661,1.43l.561-.561A11.709,11.709,0,0,0,26.54,3.156ZM26.2,5.8l-.572.55A10.533,10.533,0,0,1,27.4,7.974l.572-.561A12.918,12.918,0,0,0,26.2,5.8Zm1.089,3.058a31.307,31.307,0,0,1-1.507,3.8l.726.319a34.846,34.846,0,0,0,1.474-3.839Zm4.2-5.841v.693H28.641v.66H31.49v.726h-2.4V5.73h2.4v.748h-3.2v.66h7.2v-.66H32.26V5.73h2.508V5.092H32.26V4.366h2.926v-.66H32.26V3.013ZM30.038,9.932h3.707v.781H30.038Zm3.707-.616H30.038V8.5h3.707Zm-3.707,2h3.707v.649c0,.264-.121.4-.341.4l-1.023-.033.2.7h1.056a.792.792,0,0,0,.88-.9V7.853H29.29V13.1h.748ZM46.307,7.347H39.9v2h.7V8.029h2.123v.99h-2.1v3.355h.7V9.69h1.4v3.366h.715V9.69h1.419v1.672c0,.22-.132.33-.385.33l-.539-.022.165.649h.627c.561,0,.847-.253.847-.759V9.019H43.447v-.99H45.6V9.316h.7Zm-.836-.638V3.387H40.477v.627h4.3v.715h-4v.616h4v.737H40.51v.627ZM37.749,13c.55,0,.836-.319.836-.935V8.854q.462-.214.924-.462V7.611c-.308.176-.616.33-.924.484V5.884H39.74V5.125H38.585V3.057h-.792V5.125H36.6v.759h1.188V8.436a13.621,13.621,0,0,1-1.342.429l.2.748c.385-.132.77-.264,1.144-.418v2.673c0,.286-.11.429-.308.429a7.459,7.459,0,0,1-.847-.055L36.8,13Z" transform="translate(0 40)" fill="#333"/>
      <g id="icon-4" data-name="icon">
        <rect id="Rectangle_149-2" data-name="Rectangle 149" width="50" height="40" fill="none"/>
        <path id="vacuum_cleaner" d="M33.442,30.8a5.418,5.418,0,0,1,1.373-3.334,5.575,5.575,0,0,1,7.368-.859,3.288,3.288,0,0,0,.025-.329c-.034-.993-.005-1.994-.125-2.976a1.623,1.623,0,0,0-1.678-1.566c-.023,0-.046,0-.07,0-1.77-.051-3.542-.041-5.314-.049a15.133,15.133,0,0,0-3.549.23,13.891,13.891,0,0,0-5.835,3.145c-.1.084-.2.164-.337.274a5.09,5.09,0,0,1,.315-3.95,7.464,7.464,0,0,1,2.074-2.413c1.08-.841,2.214-1.614,3.332-2.405a14.1,14.1,0,0,0,2.711-2.3,6.252,6.252,0,0,0-.656-8.816l-.022-.019a5.8,5.8,0,0,0-6.982-.172,9.993,9.993,0,0,0-3.264,3.931c-.283.558-.515,1.142-.79,1.76l1.876.609c.055-.129.107-.245.155-.362a10.583,10.583,0,0,1,2.093-3.425A4.633,4.633,0,0,1,29.41,6.151,3.776,3.776,0,0,1,33.226,9.5a4.319,4.319,0,0,1-1.473,3.992A36.6,36.6,0,0,1,28.779,15.7a22.41,22.41,0,0,0-3.271,2.6,7.829,7.829,0,0,0-2.3,4.051,7.644,7.644,0,0,0,.432,4.214.479.479,0,0,1-.1.571,14,14,0,0,0-2.157,3.007,4.513,4.513,0,0,0-.525,2.6A2.782,2.782,0,0,0,23.617,35.2c1.625.029,3.252.012,4.878.012h6.3c.116,0,.232-.011.411-.02A5.559,5.559,0,0,1,33.441,30.8m.492-12.017c-.012.338,0,.676,0,1.062h.425c1.565,0,3.13-.008,4.695.008.305,0,.411-.087.386-.389-.022-.228,0-.461-.008-.691a.892.892,0,0,0-.876-.911h-.021q-1.855-.024-3.712,0a.88.88,0,0,0-.887.874v.045M17.516,30.465c1.968-5.858,3.72-11.233,5.727-17.176l-1.872-.611c-2,5.927-3.753,11.3-5.73,17.173Zm-.5,1.464.012-.036-1.873-.616a.073.073,0,0,1-.01.028,2.771,2.771,0,0,0-2.247.226c-1.359.479-2.713.978-4.082,1.429a2.071,2.071,0,0,0-1.3,1.657c-.077.274.112.442.465.444.947.005,1.893,0,2.84,0h3.485V35a1.274,1.274,0,1,1,2.547-.059v.119h.087c.638,0,.831-.192.832-.818,0-.388-.014-.777,0-1.164a1.036,1.036,0,0,0-.753-1.149m22.06-3.99A3.416,3.416,0,1,0,42.5,31.356h0a3.416,3.416,0,0,0-3.416-3.416M15.6,34.144a.846.846,0,1,0,.845.847.845.845,0,0,0-.845-.847h0" transform="translate(-0.499 -0.006)" fill="#333"/>
      </g>
    </g>
  </g>
</svg>
