<svg xmlns="http://www.w3.org/2000/svg" width="100" height="100" viewBox="0 0 100 100">
  <g id="Group_165" data-name="Group 165" transform="translate(-585.5 -4163)">
    <circle id="Ellipse_6" data-name="Ellipse 6" cx="50" cy="50" r="50" transform="translate(585.5 4163)" fill="#003b8b"/>
    <path id="Path_130" data-name="Path 130" d="M36.95,13.891a21.341,21.341,0,0,0,.641,5.977,2.579,2.579,0,0,0,2.625,2.07,2.544,2.544,0,0,0,2.6-2.07,22.113,22.113,0,0,0,.617-5.977,21.866,21.866,0,0,0-.617-6.062,2.521,2.521,0,0,0-2.6-1.969,2.558,2.558,0,0,0-2.625,1.969A21.1,21.1,0,0,0,36.95,13.891Zm3.266-11.7q4.328,0,6.07,3.047t1.742,8.656q0,5.609-1.742,8.641t-6.07,3.031q-4.328,0-6.07-3.031T32.4,13.891q0-5.609,1.742-8.656T40.216,2.188ZM51.8,25a10.646,10.646,0,0,1,1.047-4.453q.953-2.266,4.5-4.8a33,33,0,0,0,3.984-3.156,4.665,4.665,0,0,0,1.391-3.25,3.6,3.6,0,0,0-.8-2.391,3.249,3.249,0,0,0-5.047.563,7.517,7.517,0,0,0-.5,2.781H52.05A10.946,10.946,0,0,1,53.1,5.625q1.781-3.391,6.328-3.391a8.024,8.024,0,0,1,5.719,1.992A6.889,6.889,0,0,1,67.269,9.5a7.139,7.139,0,0,1-1.5,4.469,14.944,14.944,0,0,1-3.234,2.891l-1.781,1.266q-1.672,1.187-2.289,1.719a5.037,5.037,0,0,0-1.039,1.234h9.891V25Z" transform="translate(585.5 4197)" fill="#fff"/>
  </g>
</svg>
