<svg xmlns="http://www.w3.org/2000/svg" width="100" height="100" viewBox="0 0 100 100">
  <g id="Group_164" data-name="Group 164" transform="translate(-220.481 -4163)">
    <circle id="Ellipse_5" data-name="Ellipse 5" cx="50" cy="50" r="50" transform="translate(220.481 4163)" fill="#003b8b"/>
    <path id="Path_129" data-name="Path 129" d="M36.95,13.891a21.341,21.341,0,0,0,.641,5.977,2.579,2.579,0,0,0,2.625,2.07,2.544,2.544,0,0,0,2.6-2.07,22.113,22.113,0,0,0,.617-5.977,21.866,21.866,0,0,0-.617-6.062,2.521,2.521,0,0,0-2.6-1.969,2.558,2.558,0,0,0-2.625,1.969A21.1,21.1,0,0,0,36.95,13.891Zm3.266-11.7q4.328,0,6.07,3.047t1.742,8.656q0,5.609-1.742,8.641t-6.07,3.031q-4.328,0-6.07-3.031T32.4,13.891q0-5.609,1.742-8.656T40.216,2.188Zm12.8,7.188V6.344a19.738,19.738,0,0,0,2.953-.281,4.165,4.165,0,0,0,2.188-1.187,3.91,3.91,0,0,0,.875-1.625,3.73,3.73,0,0,0,.172-.906h3.7V25H58.347V9.375Z" transform="translate(220.481 4197)" fill="#fff"/>
  </g>
</svg>
