<svg xmlns="http://www.w3.org/2000/svg" width="50" height="64.1" viewBox="0 0 50 64.1">
  <g id="Group_175" data-name="Group 175" transform="translate(-91 -555.5)">
    <path id="Path_134" data-name="Path 134" d="M18.082,3.464V5.422H13.968v.792h4.114v5.071a.4.4,0,0,1-.44.462,10.913,10.913,0,0,1-1.221-.121v.814a8.935,8.935,0,0,0,1.254.132,1.305,1.305,0,0,0,1-.33,1.306,1.306,0,0,0,.264-.891V6.214h4.147V5.422H18.94V3.464ZM20.8,7.457l-.693.462a13.677,13.677,0,0,1,1.287,1.859,19.2,19.2,0,0,1,1.067,2.057l.781-.33a16.873,16.873,0,0,0-1.078-2.134A14.274,14.274,0,0,0,20.8,7.457ZM15.86,7.49A12.735,12.735,0,0,1,13.7,11.373l.737.44a13.4,13.4,0,0,0,2.211-4.048Zm16.6-4.125a22.714,22.714,0,0,1-3.41,2.882,23.156,23.156,0,0,1-4.081,2.321l.451.726a23.449,23.449,0,0,0,3.839-2.112V12.55h.858V6.577a21.242,21.242,0,0,0,2.992-2.651Zm3.96,4.257v.8h8.173v-.8ZM52.028,3.849V12l.539.3a10.606,10.606,0,0,0,2.288-1.661,13.917,13.917,0,0,0,1.859-2.178l-.682-.5A11.644,11.644,0,0,1,52.9,11.175V3.849ZM48.9,4.091V7.457a6.883,6.883,0,0,1-.407,2.629,5.214,5.214,0,0,1-1.606,1.848l.55.638a5.546,5.546,0,0,0,1.837-2.09,7.564,7.564,0,0,0,.495-3.025V4.091ZM25.54,14.156l-.561.55a10.473,10.473,0,0,1,1.661,1.43l.561-.561A11.709,11.709,0,0,0,25.54,14.156ZM25.2,16.8l-.572.55A10.533,10.533,0,0,1,26.4,18.974l.572-.561A12.918,12.918,0,0,0,25.2,16.8Zm1.089,3.058a31.307,31.307,0,0,1-1.507,3.8l.726.319a34.846,34.846,0,0,0,1.474-3.839Zm4.2-5.841v.693H27.641v.66H30.49v.726h-2.4v.638h2.4v.748h-3.2v.66h7.2v-.66H31.26V16.73h2.508v-.638H31.26v-.726h2.926v-.66H31.26v-.693Zm-1.452,6.919h3.707v.781H29.038Zm3.707-.616H29.038V19.5h3.707Zm-3.707,2h3.707v.649c0,.264-.121.4-.341.4l-1.023-.033.2.7h1.056a.792.792,0,0,0,.88-.9V18.853H28.29V24.1h.748Zm16.269-3.971H38.9v2h.7v-1.32h2.123v.99h-2.1v3.355h.7V20.69h1.4v3.366h.715V20.69h1.419v1.672c0,.22-.132.33-.385.33l-.539-.022.165.649h.627c.561,0,.847-.253.847-.759V20.019H42.447v-.99H44.6v1.287h.7Zm-.836-.638V14.387H39.477v.627h4.3v.715h-4v.616h4v.737H39.51v.627ZM36.749,24c.55,0,.836-.319.836-.935V19.854q.462-.214.924-.462v-.781c-.308.176-.616.33-.924.484V16.884H38.74v-.759H37.585V14.057h-.792v2.068H35.6v.759h1.188v2.552a13.621,13.621,0,0,1-1.342.429l.2.748c.385-.132.77-.264,1.144-.418v2.673c0,.286-.11.429-.308.429a7.459,7.459,0,0,1-.847-.055L35.8,24Z" transform="translate(81 595.5)" fill="#333"/>
    <g id="icon" transform="translate(91 555.5)">
      <rect id="Rectangle_149" data-name="Rectangle 149" width="50" height="40" fill="#fff"/>
      <path id="wheel_cleaning" d="M36.9,21.779v-.087a14.076,14.076,0,0,0-4.02-9.771,1.532,1.532,0,0,0-.241-.242,14.081,14.081,0,0,0-9.785-4.026h-.161a14.074,14.074,0,0,0-9.774,4.026,1.609,1.609,0,0,0-.237.237A14.072,14.072,0,0,0,8.656,21.7v.165a14.07,14.07,0,0,0,4.026,9.776,1.633,1.633,0,0,0,.212.212,14.075,14.075,0,0,0,9.87,4.048h.023a14.068,14.068,0,0,0,9.851-4.026,1.526,1.526,0,0,0,.241-.241,14.078,14.078,0,0,0,4.026-9.783.042.042,0,0,1-.005-.026v-.047ZM20.4,11.06a15.967,15.967,0,0,0-.327,7.583h0a12.871,12.871,0,0,1-4.308-5.309A10.945,10.945,0,0,1,20.4,11.06Zm-6.879,4.823a15.97,15.97,0,0,0,5.125,5.588,12.879,12.879,0,0,1-6.8-.706,10.9,10.9,0,0,1,1.677-4.882Zm-1.463,8.271h0a15.862,15.862,0,0,0,4.442.635,16.143,16.143,0,0,0,3.14-.311,12.874,12.874,0,0,1-5.31,4.308,10.952,10.952,0,0,1-2.273-4.631Zm9.7,8.555a10.9,10.9,0,0,1-4.879-1.675h0a15.982,15.982,0,0,0,5.59-5.127,12.879,12.879,0,0,1-.71,6.8ZM33.493,19.4a15.976,15.976,0,0,0-7.582-.328h0a12.883,12.883,0,0,1,5.309-4.307,10.949,10.949,0,0,1,2.274,4.636Zm-9.7-8.556a10.9,10.9,0,0,1,4.883,1.677,15.958,15.958,0,0,0-5.589,5.126,12.877,12.877,0,0,1,.706-6.8ZM25.15,32.5a15.959,15.959,0,0,0,.327-7.581h0a12.865,12.865,0,0,1,4.308,5.307A10.945,10.945,0,0,1,25.15,32.5Zm6.881-4.821h0A15.994,15.994,0,0,0,26.9,22.087a12.878,12.878,0,0,1,6.8.706,10.9,10.9,0,0,1-1.674,4.883Zm14.624-9.69v.06a1.044,1.044,0,0,1-.72.993,3.519,3.519,0,0,0-2.767,2.772,1.048,1.048,0,0,1-.99.706h-.014a1.046,1.046,0,0,1-1.009-.768,3.717,3.717,0,0,0-2.734-2.739A1.047,1.047,0,0,1,37.655,18v-.018a1.048,1.048,0,0,1,.721-.994c1.679-.555,2.14-1.026,2.764-2.785a1.047,1.047,0,0,1,.985-.7h.047a1.047,1.047,0,0,1,.987.7c.621,1.774.9,2.038,2.832,2.8l0,.006a1.047,1.047,0,0,1,.662.973ZM32.136,6.548V6.535a.743.743,0,0,1,.513-.706,2.5,2.5,0,0,0,1.962-1.977.741.741,0,0,1,.7-.5h.034a.742.742,0,0,1,.705.5c.441,1.26.639,1.447,2.01,1.987a.742.742,0,0,1,.471.691v.042a.74.74,0,0,1-.51.706,2.5,2.5,0,0,0-1.965,1.968.744.744,0,0,1-.706.5h-.009a.743.743,0,0,1-.716-.545A2.64,2.64,0,0,0,32.682,7.26h0a.741.741,0,0,1-.544-.713Z" transform="translate(-2.655 0.643)" fill="#333"/>
    </g>
  </g>
</svg>
