<svg xmlns="http://www.w3.org/2000/svg" width="50" height="64.155" viewBox="0 0 50 64.155">
  <g id="Group_178" data-name="Group 178" transform="translate(-91 -435.5)">
    <path id="Path_137" data-name="Path 137" d="M20.975,3.739l-.352.77A10.937,10.937,0,0,1,23.758,5.8l.462-.671A11.406,11.406,0,0,0,20.975,3.739Zm6.567,2.156a9.9,9.9,0,0,1-2.728,3.652,10.875,10.875,0,0,1-4.477,2.3l.4.792a11.131,11.131,0,0,0,4.741-2.486A11,11,0,0,0,28.345,6.2Zm-7.535.363-.352.77A13.245,13.245,0,0,1,22.8,8.293l.44-.726A12.886,12.886,0,0,0,20.007,6.258ZM30.919,7.622v.8h8.173v-.8Zm13.09-4.2v9.262h.869V7.743a17.511,17.511,0,0,1,2.442.638,18.7,18.7,0,0,1,2.222.891l.374-.726a21.362,21.362,0,0,0-5.038-1.639V3.42ZM14.771,23.957a.92.92,0,0,0,1.034-1.034V19.876c.462-.2.924-.418,1.375-.638v-.8c-.451.242-.913.462-1.375.66V16.8h1.342v-.759H15.805V14.024h-.781v2.013H13.583V16.8h1.441v2.6a14.238,14.238,0,0,1-1.65.5l.2.8q.726-.231,1.452-.5v2.53a.467.467,0,0,1-.528.528,7.434,7.434,0,0,1-.836-.055l.165.759Zm2.673-8.5v.77h5.61v-.77H20.711c-.22-.572-.44-1.089-.66-1.529l-.8.132a10.29,10.29,0,0,1,.66,1.4ZM16.8,23.627l.583.528a5.187,5.187,0,0,0,1.364-1.936,7.033,7.033,0,0,0,.363-2.431V18.215h1.969v4.774c0,.638.33.968,1.012.968h.407a1.521,1.521,0,0,0,.726-.132.888.888,0,0,0,.275-.594,10.9,10.9,0,0,0,.077-1.43l-.693-.209a5.492,5.492,0,0,1-.1,1.518.225.225,0,0,1-.132.11.791.791,0,0,1-.242.044h-.3c-.2,0-.3-.121-.3-.352V17.5H18.368v2.288A5.766,5.766,0,0,1,18.038,22,4.54,4.54,0,0,1,16.8,23.627Zm7.821-8.888v.7h2.64v.726h.814v-.726h2.893v.715h.814v-.715H34.4v-.7H31.777v-.726h-.814v.726H28.07V14h-.814v.737Zm8.943,1.837H25.5v7.546h.748v-.506h6.567v.506h.748Zm-7.315,6.336V17.269h6.567v5.643Zm.649-3.476v.66h2.123a8.67,8.67,0,0,1-2.288,1.683l.385.671a9.219,9.219,0,0,0,2.057-1.8v1.947h.737V21a20.658,20.658,0,0,1,2.013,1.309l.451-.66c-.836-.462-1.65-.88-2.464-1.232V20.1h2.277v-.66H29.907v-.858a12.463,12.463,0,0,0,1.859-.352l-.33-.572a16.144,16.144,0,0,1-4.235.5l.187.561q.94,0,1.782-.066v.792Zm18.128-3.784h-3.6v8.283h.759V23.2h2.068v.737h.77Zm-2.838,6.787V16.411h2.068v6.028Zm-4.807-8.393v2.222h-1.76v.77h1.76q-.05,4.521-1.969,6.589l.583.517Q38.1,21.9,38.168,17.038h1.463c-.022,2.948-.066,4.719-.132,5.291-.088.627-.418.946-.979.946-.264,0-.572-.022-.924-.044l.2.726c.4.022.671.044.836.044a1.433,1.433,0,0,0,1.617-1.364q.165-1.221.165-6.369H38.168V14.046ZM51.1,15.619v6.963h-4.51v.759h9.823v-.759h-4.5V15.619H55.7V14.86H47.331v.759Z" transform="translate(81 475.5)" fill="#333"/>
    <g id="icon" transform="translate(91 435.5)">
      <rect id="Rectangle_149" data-name="Rectangle 149" width="50" height="40" fill="#fff"/>
      <path id="sheet_cleaning" d="M36.529,30.075c2.68,2.448-1.282,6.876-1.282,6.876H17.533S14.782,25.875,13.89,23.035c-.88-2.807-4.224-9.264.878-8.777,6.208.593,6.977,13.551,6.36,17.058,2.549-.694,13.05-3.387,15.4-1.24Zm-20.5-15.67c3.778.5,3.449-6.014,3.449-6.014C19.293,4.306,17.8,3.684,16.458,3.84s-2.741,2.526-3.187,4.707S12.253,13.911,16.031,14.405ZM38,16.635l0-.006c-1.813-.715-2.074-.962-2.658-2.627a.981.981,0,0,0-.926-.657h-.044a.981.981,0,0,0-.924.654,3.3,3.3,0,0,1-2.594,2.614.981.981,0,0,0-.677.933v.017a.983.983,0,0,0,.719.947,3.491,3.491,0,0,1,2.566,2.57.982.982,0,0,0,.947.721h.013a.981.981,0,0,0,.929-.662,3.3,3.3,0,0,1,2.6-2.6.977.977,0,0,0,.676-.932v-.056A.981.981,0,0,0,38,16.636ZM25.5,7.485h0a2.475,2.475,0,0,1,1.821,1.825A.7.7,0,0,0,28,9.822h.008a.7.7,0,0,0,.662-.473A2.346,2.346,0,0,1,30.513,7.5a.694.694,0,0,0,.479-.662V6.8a.7.7,0,0,0-.442-.648c-1.287-.508-1.472-.683-1.886-1.865A.7.7,0,0,0,28,3.82h-.032a.7.7,0,0,0-.655.465A2.341,2.341,0,0,1,25.474,6.14a.7.7,0,0,0-.481.662v.012a.7.7,0,0,0,.51.671Z" transform="translate(-0.019 -0.385)" fill="#333"/>
    </g>
  </g>
</svg>
