<svg xmlns="http://www.w3.org/2000/svg" width="53.867" height="53.111" viewBox="0 0 53.867 53.111">
  <g id="Group_177" data-name="Group 177" transform="translate(-208.226 -441)">
    <path id="Path_136" data-name="Path 136" d="M9.359,5.829v.726h1.8A5.7,5.7,0,0,1,9.414,8.172a1.182,1.182,0,0,1-.165.077l.176.682c1.078-.044,2.134-.088,3.168-.143V9.976H9.106v.737h3.487v1.375H8.226v.748h9.548v-.748H13.407V10.713h3.509V9.976H13.407V8.744c.814-.044,1.617-.1,2.4-.154a9.065,9.065,0,0,1,.671.814l.572-.583a17.614,17.614,0,0,0-2.277-2.233l-.506.484c.33.3.649.594.957.9-1.551.11-3.1.187-4.653.253a9.6,9.6,0,0,0,1.5-1.672h4.576V5.829Zm3.6-2.915-.88.154a7.552,7.552,0,0,1,.55.979H8.4V6.181h.8V4.8H16.8V6.181h.8V4.047H13.484C13.308,3.629,13.132,3.244,12.956,2.914ZM23.967,7.523a21.959,21.959,0,0,1,2.519,3l.594-.605A24.911,24.911,0,0,0,24.2,6.731a11.31,11.31,0,0,0,.209-1.177h3.146v6.138a.475.475,0,0,1-.528.539l-1.683-.044.22.792h1.727a.967.967,0,0,0,1.067-1.111V4.784H24.5c.044-.55.077-1.155.077-1.8h-.8c0,.638-.033,1.243-.088,1.8H19.655v8.3h.8V5.554h3.135a11.512,11.512,0,0,1-.3,1.4A5.766,5.766,0,0,1,20.854,10l.528.649A6.236,6.236,0,0,0,23.967,7.523Zm15.84-.176H33.4v2h.7V8.029h2.123v.99h-2.1v3.355h.7V9.69h1.4v3.366h.715V9.69h1.419v1.672c0,.22-.132.33-.385.33l-.539-.022.165.649h.627c.561,0,.847-.253.847-.759V9.019H36.947v-.99H39.1V9.316h.7Zm-.836-.638V3.387H33.977v.627h4.3v.715h-4v.616h4v.737H34.01v.627ZM31.249,13c.55,0,.836-.319.836-.935V8.854q.462-.214.924-.462V7.611c-.308.176-.616.33-.924.484V5.884H33.24V5.125H32.085V3.057h-.792V5.125H30.1v.759h1.188V8.436a13.621,13.621,0,0,1-1.342.429l.2.748c.385-.132.77-.264,1.144-.418v2.673c0,.286-.11.429-.308.429a7.459,7.459,0,0,1-.847-.055L30.3,13ZM41.4,3.453v9.658h.77V4.2h1.551c-.253.924-.594,1.969-1.034,3.124a4.375,4.375,0,0,1,.99,2.475.651.651,0,0,1-.176.506,1.218,1.218,0,0,1-.682.176,4.037,4.037,0,0,1-.429-.044l.264.8a2.226,2.226,0,0,0,1.507-.407A1.469,1.469,0,0,0,44.471,9.8a5.532,5.532,0,0,0-.99-2.6c.407-1.078.759-2.123,1.045-3.124V3.453Zm5.94,9.537c.55,0,.836-.308.836-.913V8.8h2.464v-.77H48.178v-1.3H49.52V5.994H45.912v.737h1.452v1.3H44.79V8.8h2.574v3.08c0,.253-.1.385-.3.385-.33,0-.682-.022-1.045-.044l.176.77Zm.033-9.812a9.474,9.474,0,0,1-3,2.9l.451.671A9.925,9.925,0,0,0,47.76,3.937a8.225,8.225,0,0,0,2.882,2.75l.462-.671a7.915,7.915,0,0,1-2.959-2.838Zm2.068,6.369-.616.374a20.361,20.361,0,0,1,1.309,2.453l.66-.451A20.534,20.534,0,0,0,49.443,9.547ZM45.8,9.6a9.735,9.735,0,0,1-1.5,2.376l.649.462a11.28,11.28,0,0,0,1.529-2.5ZM56.1,8.073c0,.11-.011.3-.011.572H54.866v.7h1.188a4.81,4.81,0,0,1-.33,1.617,4.962,4.962,0,0,1-1.21,1.617l.55.517a5.8,5.8,0,0,0,1.2-1.584,5.823,5.823,0,0,0,.319-.9,7.382,7.382,0,0,1,1.243.957l.407-.616a8.459,8.459,0,0,0-1.54-1.012c.022-.132.033-.253.044-.385,0-.066.011-.143.011-.209h1.661a.61.61,0,0,0,.033.187,7.9,7.9,0,0,0,.627,1.826,7.811,7.811,0,0,1-1.947,1.045l.308.671a9,9,0,0,0,2-1.089l.055.088a1.929,1.929,0,0,0,1.43.957c.528,0,.913-.594,1.177-1.76l-.616-.407c-.176.946-.385,1.43-.616,1.43q-.413,0-.924-.726A7.3,7.3,0,0,0,61.312,9.9l-.561-.418a6.861,6.861,0,0,1-1.155,1.43,9.113,9.113,0,0,1-.473-1.562h2.882v-.7h-.99a5.127,5.127,0,0,0-.539-.913l-.627.231a5.075,5.075,0,0,1,.484.682h-1.32a23.923,23.923,0,0,1-.2-2.992V3.024h-.726V5.653a20.681,20.681,0,0,0,.2,2.992H56.78c.011-.253.022-.44.022-.572ZM53.953,7.38c.209.341.451.759.715,1.243l.407-.594q-.561-.809-1.122-1.485V5.928h.869V5.191h-.869V3.013h-.737V5.191H52.127v.737h1.056A10.413,10.413,0,0,1,51.9,9.206l.319.792a12.061,12.061,0,0,0,1-2.387v5.456h.737Zm3.421-1.32-.473.165c.077.242.154.506.22.781-.319.055-.671.11-1.056.176A16.061,16.061,0,0,0,58,4.267l-.572-.187c-.187.341-.363.66-.539.957-.308.044-.66.077-1.034.121a15.391,15.391,0,0,0,1.056-1.892L56.3,3.057a6.015,6.015,0,0,1-1.221,2.167l.11.528q.726-.066,1.353-.132c-.616.979-1.067,1.518-1.375,1.628l.132.55c.726-.088,1.375-.187,1.947-.275q.05.231.1.495l.517-.132A16.633,16.633,0,0,0,57.374,6.06Zm4.015-.231-.506.154c.1.264.2.539.286.825-.341.066-.715.121-1.133.187a16.687,16.687,0,0,0,1.9-2.772l-.572-.187c-.176.308-.352.6-.517.891-.319.044-.682.088-1.078.132a12.574,12.574,0,0,0,1.056-1.793l-.6-.209A5.68,5.68,0,0,1,59,5.125l.11.506c.484-.044.946-.088,1.375-.132-.6.935-1.056,1.452-1.353,1.562l.121.55c.77-.1,1.463-.2,2.068-.286.044.154.088.33.132.517l.539-.132A13.559,13.559,0,0,0,61.389,5.829Z" transform="translate(200 481)" fill="#333"/>
    <g id="icon" transform="translate(210 441)">
      <rect id="Rectangle_149" data-name="Rectangle 149" width="50" height="40" fill="#fff"/>
      <path id="vacuum_cleaner" d="M33.442,30.8a5.418,5.418,0,0,1,1.373-3.334,5.575,5.575,0,0,1,7.368-.859,3.288,3.288,0,0,0,.025-.329c-.034-.993-.005-1.994-.125-2.976a1.623,1.623,0,0,0-1.678-1.566c-.023,0-.046,0-.07,0-1.77-.051-3.542-.041-5.314-.049a15.133,15.133,0,0,0-3.549.23,13.891,13.891,0,0,0-5.835,3.145c-.1.084-.2.164-.337.274a5.09,5.09,0,0,1,.315-3.95,7.464,7.464,0,0,1,2.074-2.413c1.08-.841,2.214-1.614,3.332-2.405a14.1,14.1,0,0,0,2.711-2.3,6.252,6.252,0,0,0-.656-8.816l-.022-.019a5.8,5.8,0,0,0-6.982-.172,9.993,9.993,0,0,0-3.264,3.931c-.283.558-.515,1.142-.79,1.76l1.876.609c.055-.129.107-.245.155-.362a10.583,10.583,0,0,1,2.093-3.425A4.633,4.633,0,0,1,29.41,6.151,3.776,3.776,0,0,1,33.226,9.5a4.319,4.319,0,0,1-1.473,3.992A36.6,36.6,0,0,1,28.779,15.7a22.41,22.41,0,0,0-3.271,2.6,7.829,7.829,0,0,0-2.3,4.051,7.644,7.644,0,0,0,.432,4.214.479.479,0,0,1-.1.571,14,14,0,0,0-2.157,3.007,4.513,4.513,0,0,0-.525,2.6A2.782,2.782,0,0,0,23.617,35.2c1.625.029,3.252.012,4.878.012h6.3c.116,0,.232-.011.411-.02A5.559,5.559,0,0,1,33.441,30.8m.492-12.017c-.012.338,0,.676,0,1.062h.425c1.565,0,3.13-.008,4.695.008.305,0,.411-.087.386-.389-.022-.228,0-.461-.008-.691a.892.892,0,0,0-.876-.911h-.021q-1.855-.024-3.712,0a.88.88,0,0,0-.887.874v.045M17.516,30.465c1.968-5.858,3.72-11.233,5.727-17.176l-1.872-.611c-2,5.927-3.753,11.3-5.73,17.173Zm-.5,1.464.012-.036-1.873-.616a.073.073,0,0,1-.01.028,2.771,2.771,0,0,0-2.247.226c-1.359.479-2.713.978-4.082,1.429a2.071,2.071,0,0,0-1.3,1.657c-.077.274.112.442.465.444.947.005,1.893,0,2.84,0h3.485V35a1.274,1.274,0,1,1,2.547-.059v.119h.087c.638,0,.831-.192.832-.818,0-.388-.014-.777,0-1.164a1.036,1.036,0,0,0-.753-1.149m22.06-3.99A3.416,3.416,0,1,0,42.5,31.356h0a3.416,3.416,0,0,0-3.416-3.416M15.6,34.144a.846.846,0,1,0,.845.847.845.845,0,0,0-.845-.847h0" transform="translate(-0.499 -0.006)" fill="#333"/>
    </g>
  </g>
</svg>
