<svg id="icon" xmlns="http://www.w3.org/2000/svg" width="100" height="100" viewBox="0 0 100 100">
  <rect id="Rectangle_171" data-name="Rectangle 171" width="100" height="100" fill="none"/>
  <path id="sheet_cleaning" d="M67.292,63C73.334,68.521,64.4,78.5,64.4,78.5H24.471s-6.2-24.968-8.211-31.369c-1.985-6.328-9.522-20.883,1.98-19.784C32.235,28.685,33.968,57.894,32.576,65.8,38.323,64.234,61.993,58.164,67.292,63ZM21.086,27.681C29.6,28.8,28.861,14.125,28.861,14.125c-.422-9.208-3.782-10.611-6.812-10.258S15.87,9.561,14.864,14.478,12.57,26.566,21.086,27.681ZM70.6,32.707l0-.014c-4.087-1.611-4.676-2.169-5.991-5.922a2.211,2.211,0,0,0-2.086-1.482h-.1a2.212,2.212,0,0,0-2.084,1.475c-1.32,3.722-2.3,4.717-5.848,5.892a2.212,2.212,0,0,0-1.525,2.1V34.8a2.216,2.216,0,0,0,1.62,2.135,7.869,7.869,0,0,1,5.783,5.792A2.214,2.214,0,0,0,62.5,44.35h.03a2.212,2.212,0,0,0,2.093-1.493,7.445,7.445,0,0,1,5.852-5.864A2.2,2.2,0,0,0,72,34.893v-.127a2.211,2.211,0,0,0-1.4-2.056ZM42.442,12.083h0A5.578,5.578,0,0,1,46.547,16.2a1.569,1.569,0,0,0,1.516,1.152h.018a1.573,1.573,0,0,0,1.493-1.066,5.289,5.289,0,0,1,4.156-4.163,1.565,1.565,0,0,0,1.08-1.493v-.09a1.567,1.567,0,0,0-1-1.461c-2.9-1.145-3.319-1.539-4.251-4.2a1.57,1.57,0,0,0-1.491-1.05H48a1.567,1.567,0,0,0-1.477,1.048,5.278,5.278,0,0,1-4.152,4.182,1.574,1.574,0,0,0-1.085,1.493v.028a1.571,1.571,0,0,0,1.149,1.512Z" transform="translate(8 8.839)" fill="#003b8b"/>
</svg>
