<?xml version="1.0" encoding="UTF-8"?><svg id="tire_change" xmlns="http://www.w3.org/2000/svg" viewBox="0 0 100 100">
    <path
        d="M99.958,74.558c.012,3.47-1.591,6.748-4.338,8.869-.135,.118-.309,.184-.488,.185-.415,.003-.754-.331-.757-.746l.003-4.982c.007-.666-.352-1.282-.936-1.604l-2.78-1.519c-.763-.404-1.686-.356-2.404,.124l-2.782,1.807c-.578,.373-.93,1.012-.937,1.7l-.005,4.981c.003,.161-.043,.319-.131,.454-.243,.373-.742,.478-1.115,.235-2.774-1.896-4.4-5.066-4.322-8.425,.164-3.237,1.644-6.266,4.098-8.384,2.29-2.142,2.587-3.05,2.588-4.706l.01-15.39,.008-11.253c.001-1.658-.295-2.536-2.586-4.444-2.477-1.915-3.974-4.832-4.086-7.961-.012-3.47,1.591-6.748,4.338-8.869,.135-.118,.308-.184,.488-.185,.415-.003,.754,.331,.757,.746l-.005,6.109c-.007,.666,.352,1.282,.936,1.604l2.779,1.518c.763,.403,1.686,.355,2.404-.124l2.783-1.805c.578-.373,.931-1.012,.937-1.701l.003-6.108c-.003-.161,.043-.319,.131-.454,.243-.373,.742-.478,1.115-.235,2.774,1.892,4.404,5.059,4.331,8.416-.162,3.242-1.646,6.276-4.105,8.395-2.29,2.142-2.587,3.05-2.588,4.706l-.008,11.253-.01,15.388c-.002,1.657,.294,2.535,2.585,4.443,2.477,1.915,3.975,4.833,4.087,7.962ZM26.495,41.077c2.838,1.204,4.95,2.331,6.85,.954,1.9-1.37,1.497-3.727,1.244-6.802-.356-4.415-1.289-9.394-1.289-9.394-6.356,1.533-11.855,5.503-15.312,11.052,0,0,4.436,2.466,8.509,4.191l-.002-.002Zm3.261,11.944c-.719-2.228-3.087-2.569-6.089-3.277-4.321-1.015-9.337-1.66-9.337-1.66-.496,6.519,1.587,12.972,5.803,17.97,0,0,3.704-3.462,6.597-6.81,2.016-2.332,3.746-3.996,3.027-6.223Zm15.146-10.935c1.887,1.385,4.009,.276,6.855-.906,4.096-1.699,8.543-4.117,8.543-4.117-3.413-5.577-8.882-9.589-15.227-11.17,0,0-.97,4.969-1.364,9.382v-.005c-.274,3.07-.696,5.427,1.193,6.815Zm3.512,11.015c-.737,2.215,.972,3.899,2.971,6.244,2.882,3.372,6.546,6.86,6.546,6.86v-.005c4.254-4.96,6.39-11.393,5.948-17.912,0,0-5.031,.604-9.349,1.589-3.006,.679-5.379,1.009-6.115,3.224Zm-4.328,11.51c-1.599-2.639-2.64-4.79-4.985-4.79s-3.398,2.15-4.997,4.789c-2.29,3.789-4.45,8.373-4.45,8.373,6.052,2.477,12.834,2.477,18.886,0,0,0-2.157-4.581-4.45-8.373l-.003,.002Zm34.103-14.611c0,21.591-17.502,39.094-39.093,39.095C17.505,89.096,0,71.593,0,50.002,0,28.41,17.502,10.906,39.093,10.905h.002c21.591,0,39.095,17.503,39.095,39.095Zm-8.794-.008c0-16.735-13.567-30.302-30.302-30.302s-30.302,13.567-30.302,30.302,13.567,30.302,30.302,30.302,30.302-13.567,30.302-30.302Z"
        fill="#003b8b" />
</svg>