<svg id="icon" xmlns="http://www.w3.org/2000/svg" width="100" height="100" viewBox="0 0 100 100">
  <rect id="Rectangle_171" data-name="Rectangle 171" width="100" height="100" fill="none"/>
  <path id="ceiling_cleaning" d="M51.033,23.349H69.356c.9,0,1.438-.419,1.508-1.152a1.275,1.275,0,0,0-1.085-1.44,1.206,1.206,0,0,0-.3-.006c-1.927-.012-3.856,0-5.783,0H32.831c-1.044,0-1.615.446-1.629,1.271a1.283,1.283,0,0,0,1.223,1.342,1.355,1.355,0,0,0,.225-.008H51.031m25.777,6.677c-1.475-.45-2.948-.917-4.431-1.333a3.129,3.129,0,0,1-2.127-1.838.591.591,0,0,0-.648-.4q-18.1.009-36.192,0c-.169,0-.335.017-.6.029.2.506.377.963.567,1.413a35.665,35.665,0,0,0,10.733,14.59A29.571,29.571,0,0,0,52.8,47.31a44.957,44.957,0,0,0,15.456,2.281c1.729-.092,3.448-.371,5.171-.556a.754.754,0,0,0,.71-.685q1.95-8.113,3.917-16.225c.279-1.16-.077-1.754-1.235-2.106M69.289,36.9l-1.654,5.929a1.123,1.123,0,0,1-1.115.733h-6c-5.225,0-9.458-3.5-9.458-7.821H68.175c.733,0,1.279.567,1.115,1.156m14.3-5.188c-1.758-.429-3.329-.175-3.51.569L75.891,49.449c-.181.742,1.1,1.69,2.854,2.119s3.329.175,3.51-.569l4.185-17.173c.179-.742-1.1-1.69-2.856-2.119m8.54,2.081c-1.758-.429-3.329-.175-3.51.569L84.431,51.537c-.181.742,1.1,1.69,2.856,2.119s3.329.175,3.51-.569L94.983,35.91c.179-.742-1.1-1.69-2.856-2.119M3.512,14.449a2.572,2.572,0,0,1,0-5.142H98.369a2.572,2.572,0,0,1,.121,5.142H3.512ZM28.7,41.641c-2.806-1.106-3.21-1.488-4.113-4.067a1.52,1.52,0,0,0-1.431-1.019h-.069a1.516,1.516,0,0,0-1.429,1.013c-.906,2.554-1.577,3.24-4.013,4.046A1.52,1.52,0,0,0,16.6,43.056v.027a1.516,1.516,0,0,0,1.115,1.46,5.393,5.393,0,0,1,3.971,3.977,1.521,1.521,0,0,0,1.46,1.115h.027A1.518,1.518,0,0,0,24.608,48.6a5.112,5.112,0,0,1,4.019-4.025,1.511,1.511,0,0,0,1.046-1.442v-.085a1.52,1.52,0,0,0-.96-1.413M17.864,26.487v-.063a1.079,1.079,0,0,0-.683-1c-1.992-.785-2.277-1.056-2.925-2.885a1.081,1.081,0,0,0-1.019-.721h-.05a1.078,1.078,0,0,0-1.015.719,3.627,3.627,0,0,1-2.844,2.873,1.075,1.075,0,0,0-.738,1.023v.019a1.079,1.079,0,0,0,.792,1.038A3.829,3.829,0,0,1,12.2,30.308a1.077,1.077,0,0,0,1.04.792h.015a1.078,1.078,0,0,0,1.019-.733,3.635,3.635,0,0,1,2.854-2.858,1.07,1.07,0,0,0,.742-1.023" transform="translate(-1 18.87)" fill="#003b8b"/>
</svg>
