<svg id="icon" xmlns="http://www.w3.org/2000/svg" width="100" height="100" viewBox="0 0 100 100">
  <rect id="Rectangle_171" data-name="Rectangle 171" width="100" height="100" fill="none"/>
  <path id="window_cleaning" d="M28.279,43.733,51.63,67.085A2.131,2.131,0,1,1,48.616,70.1L25.265,46.748a2.131,2.131,0,0,1,3.014-3.014Zm18.428-9.556,5.84,2.17L51.22,30.263l2.17-5.84-6.085,1.324-5.84-2.17,1.326,6.085L40.622,35.5l6.085-1.321ZM57.16,53.965l3.455,1.283-.784-3.6,1.283-3.455-3.6.79L54.053,47.7l.784,3.6-1.283,3.455,3.6-.79ZM71.805,29.876l3.455,1.283-.784-3.6L75.758,24.1l-3.6.784L68.7,23.6l.785,3.6L68.2,30.66ZM30.325,69.234Q23.547,76.891,16.8,84.573a4.013,4.013,0,0,1-4.328,1.471,4.015,4.015,0,0,1-1.553-6.908q7.8-6.886,15.594-13.757c.17-.147.335-.3.63-.563-.8-.784-1.592-1.541-2.364-2.315-1.037-1.037-1.037-1.7.015-2.738.439-.436.924-.828,1.448-1.3-1.443-1.44-2.766-2.759-4.085-4.082a2.122,2.122,0,0,1-.018-3.51c.795-.808,1.569-1.631,2.315-2.41l22.564,22.58c-.919.919-1.832,1.886-2.813,2.792l-.054.046a1.971,1.971,0,0,1-2.774-.276c-1.2-1.169-2.379-2.364-3.553-3.556a7.971,7.971,0,0,1-.612-.828c-.568.622-.994,1.11-1.448,1.564-1.012,1.012-1.685,1.014-2.676.023-.712-.7-1.388-1.422-2.157-2.212-.235.245-.415.439-.6.637ZM15.6,81.926a1.929,1.929,0,1,0-1.93,1.93h0A1.928,1.928,0,0,0,15.6,81.928ZM87.484,4.091H62.28a50.341,50.341,0,0,0-50.29,50.29V65.307h.034a1.944,1.944,0,0,0-.034.348,2.008,2.008,0,0,0,4.013.1h.01V54.383A46.309,46.309,0,0,1,62.28,8.117H85.466V79.724H30.155s.01.021.015.034a2.007,2.007,0,0,0,.333,3.99H87.487A2.012,2.012,0,0,0,89.5,81.735V6.1a2.012,2.012,0,0,0-2.013-2.013Z" transform="translate(0.5 4.855)" fill="#003b8b"/>
</svg>
