<?xml version="1.0" encoding="UTF-8"?><svg id="_battery_change" xmlns="http://www.w3.org/2000/svg"
    viewBox="0 0 100 100">
    <path
        d="M99.993,37.79c.015,.057,.007,.118-.025,.167l-11.143,18.451c-.019,.034-.049,.061-.083,.08-.036,.021-.076,.032-.118,.032-.082,.002-.158-.041-.201-.111l-11.143-18.451c-.021-.033-.032-.071-.032-.111,.003-.125,.106-.224,.232-.221h5.836l-.46-1.29c-3.697-9.971-11.824-17.654-21.987-20.785-3.515-1.109-7.179-1.674-10.865-1.674-13.945-.168-26.634,8.035-32.205,20.821l-.173-.287c-1.333-2.152-3.691-3.456-6.223-3.44-.154,0-.293,0-.438,.012,5.409-11.687,15.869-20.256,28.393-23.258,3.496-.866,7.083-1.305,10.684-1.307,19.362,0,36.279,12.533,41.138,30.479l.196,.73h8.394c.103,0,.193,.067,.224,.164Zm-17.611,27.795l-.172-.287c-5.569,12.785-18.258,20.988-32.202,20.819-3.685,0-7.35-.565-10.864-1.674-10.162-3.132-18.288-10.814-21.985-20.784l-.46-1.29h5.827c.045,.003,.09-.009,.129-.033,.102-.064,.133-.198,.069-.301l-11.143-18.451c-.068-.107-.206-.142-.316-.08-.035,.018-.065,.046-.085,.08L.033,62.032c-.003,.005-.006,.01-.009,.016-.055,.106-.013,.237,.094,.292,.034,.019,.074,.03,.114,.029H8.628l.196,.731c4.858,17.949,21.775,30.483,41.14,30.483l.003-.003c3.6-.002,7.185-.44,10.679-1.305,12.526-3.002,22.988-11.572,28.397-23.261-.146,.014-.29,.014-.436,.014-2.533,.016-4.892-1.288-6.225-3.442Zm-48.414-8.844c-.005-.057-.015-.104-.015-.154v-18.105s0-.004,0-.006c.003-1.024,.836-1.851,1.86-1.848h2.204v-1.874c.003-.736,.601-1.331,1.338-1.329h3.64c.736,0,1.333,.597,1.333,1.333v1.869h11.354v-1.869c0-.736,.597-1.333,1.333-1.333h3.643c.736,0,1.333,.597,1.333,1.333v1.869h2.204c1.024,0,1.854,.83,1.854,1.854v18.099c0,.057-.015,.104-.015,.154l.002-.006c.669,.045,1.188,.601,1.186,1.272v3.394c0,.703-.568,1.274-1.272,1.278h-31.886c-.705,0-1.276-.573-1.276-1.278v-3.394c.004-.664,.519-1.213,1.181-1.259Zm21.256-12.304c-.007,.637,.504,1.159,1.141,1.166h4.895c.59-.03,1.062-.502,1.092-1.092,.033-.636-.456-1.179-1.092-1.211h-4.966c-.598,.043-1.064,.538-1.07,1.138Zm-17.57-.045c-.033,.636,.456,1.179,1.092,1.211h1.296v1.296c0,.636,.516,1.152,1.152,1.152s1.152-.516,1.152-1.152v-1.296h1.296c.59-.03,1.062-.502,1.092-1.092,.033-.636-.456-1.179-1.092-1.211h-1.296v-1.296c0-.636-.516-1.152-1.152-1.152s-1.152,.516-1.152,1.152v1.296h-1.296c-.59,.03-1.062,.502-1.092,1.092Z"
        fill="#003b8b" />
</svg>