<svg id="icon" xmlns="http://www.w3.org/2000/svg" width="100" height="80" viewBox="0 0 100 80">
  <rect id="Rectangle_149" data-name="Rectangle 149" width="100" height="80" fill="#fff"/>
  <path id="car_wash" d="M85.043,17.685l-.014-.015L74.322,3.772a.884.884,0,0,0-1.114-.234A1.051,1.051,0,0,0,73.1,3.6L49.14,21.369a.842.842,0,0,0-.169,1.194l2.893,3.757c-4.266-.4-9.272-.4-11.878-.4-4.453,0-15.918,0-18.7,1.967-2.122,1.5-5.472,8.646-6.943,11.957l-1-.914a3.11,3.11,0,0,0-2.1-.812H7.327A2.312,2.312,0,0,0,6.7,42.663l4.772,1.285-3.17,3.574a8.522,8.522,0,0,0-2.16,5.655V74.656a1.927,1.927,0,0,0,1.946,1.909h7.765a1.925,1.925,0,0,0,1.935-1.909V70.813h44.4v3.843a1.927,1.927,0,0,0,1.946,1.909H71.9a1.926,1.926,0,0,0,1.935-1.909V53.176a8.518,8.518,0,0,0-2.158-5.657l-3.168-3.565L73.28,42.67a2.311,2.311,0,0,0-.628-4.549H68.73a3.1,3.1,0,0,0-2.1.812l-1,.914c-.565-1.274-1.411-3.112-2.353-4.98l.621-.459a11.125,11.125,0,0,1-1.566-2.391c-1.273-2.649-2.488-5.055-4.2-8.311a1.758,1.758,0,0,1-.126-1.532,1.974,1.974,0,0,1,1.253-1.06,2.294,2.294,0,0,1,.47-.1,2.832,2.832,0,0,1,1.359.207,4.022,4.022,0,0,1,2.119,1.953c-.236-2.011-.556-4.646-.792-6.525-.126-1.044-.236-1.938-.279-2.3a2.145,2.145,0,0,1,1.12-2.137,2.245,2.245,0,0,1,.628-.227c.065-.013.135-.024.2-.033a2.137,2.137,0,0,1,1.147.181,2.2,2.2,0,0,1,1.928-1.806,2.548,2.548,0,0,1,.648.011,2.1,2.1,0,0,1,1.69,1.316,2.407,2.407,0,0,1,1.159-.441c.067-.009.135-.013.2-.015a2.209,2.209,0,0,1,2.34,2.062v.011l.072.614a2.351,2.351,0,0,1,.954-.36,2.187,2.187,0,0,1,2.592,2c.191,1.552.376,3.112.553,4.622l.47,3.944,7.024-5.209a.844.844,0,0,0,.171-1.194ZM23.241,30.56h0c.317-.227,2.623-1.349,16.744-1.349,8.379,0,12.58.4,14.692.762l5,6.487a.868.868,0,0,0,.711.322Q61.9,39.6,63.2,42.517a226.876,226.876,0,0,0-46.419,0A87.142,87.142,0,0,1,23.241,30.56ZM20.655,54.547c0,2.338-2.6,3.384-5.654,2.92a4.548,4.548,0,0,1-4.315-4.234A4.276,4.276,0,0,1,15,49a5.5,5.5,0,0,1,5.654,5.324v.225Zm27.353,8.315a.747.747,0,0,1-.754.739H32.715a.746.746,0,0,1-.745-.739V60.187a.747.747,0,0,1,.754-.739H47.268a.747.747,0,0,1,.754.739ZM64.98,49A4.276,4.276,0,0,1,69.3,53.234l0,0a4.55,4.55,0,0,1-4.311,4.24c-3.058.461-5.654-.583-5.654-2.92A5.485,5.485,0,0,1,64.752,49h.229ZM77.42,27.17a13.449,13.449,0,0,1-.293,4.607,6.394,6.394,0,0,1-2.243,3.543,7.232,7.232,0,0,1-3.694,1.494A6.892,6.892,0,0,1,65.76,35.2a11.347,11.347,0,0,1-2.707-3.507c-1.276-2.653-2.493-5.066-4.207-8.335a1.037,1.037,0,0,1-.1-.894,1.189,1.189,0,0,1,.776-.622,1.5,1.5,0,0,1,.311-.068,2.065,2.065,0,0,1,.985.161A3.444,3.444,0,0,1,62.676,23.8c.184.375.412.742.63,1.095a12.344,12.344,0,0,1,.668,1.185c.092.19.184.179.214.174a.223.223,0,0,0,.052-.013c.067-.026.076-.055.065-.225v-.046c-.056-1.015-1.213-10.3-1.372-11.708a1.4,1.4,0,0,1,1.132-1.527c.045-.009.09-.015.135-.022.029,0,.058,0,.088,0a1.453,1.453,0,0,1,1.5,1.4c.4,3.346.7,5.909.976,8.311a.4.4,0,0,0,.083.254.185.185,0,0,0,.137.02.217.217,0,0,0,.155-.066.354.354,0,0,0,.025-.249c-.124-.916-.234-1.85-.342-2.753-.027-.241-.056-.481-.085-.722L66.6,17.711l-.029-.243c-.185-1.541-.376-3.134-.551-4.7,0-.029-.009-.057-.014-.084a1.443,1.443,0,0,1,1.269-1.6,1.751,1.751,0,0,1,.443.009,1.462,1.462,0,0,1,1.231,1.446c.4,3.4.772,6.507,1.125,9.5l0,.009c.018.159.041.336.119.4a.2.2,0,0,0,.155.026.191.191,0,0,0,.126-.049c.036-.051.016-.183,0-.291,0-.038-.009-.075-.016-.113-.346-2.87-.686-5.675-1-8.472,0-.029-.007-.057-.009-.086a1.41,1.41,0,0,1,1.318-1.5c.047,0,.094-.009.142-.011l.07,0a1.434,1.434,0,0,1,1.467,1.4c.187,1.631.373,3.269.553,4.856l.02.168q.186,1.646.373,3.289l.009.015c.009.119.027.278.092.329a.2.2,0,0,0,.157.013c.151-.029.218-.077.171-.43-.247-1.867-.477-3.8-.686-5.759,0-.013,0-.026,0-.038a1.379,1.379,0,0,1,1.228-1.521,1.515,1.515,0,0,1,.243-.026A1.406,1.406,0,0,1,76.054,15.6c.193,1.545.376,3.108.553,4.622L76.8,21.85c.072.611.139,1.181.207,1.733.142,1.174.277,2.28.416,3.591ZM95,25.534l-4.318,2.92L88.656,33.2l-2.979-4.234L80.84,26.976l4.318-2.92,2.027-4.746,2.977,4.236L95,25.534ZM85.988,44.1l2.864,1.179L86.3,47l-1.2,2.812-1.764-2.508-2.866-1.181L83.022,44.4l1.2-2.812L85.99,44.1Z" transform="translate(0 0.001)" fill="#333"/>
</svg>
