<svg id="icon" xmlns="http://www.w3.org/2000/svg" width="100" height="100" viewBox="0 0 100 100">
  <rect id="Rectangle_171" data-name="Rectangle 171" width="100" height="100" fill="none"/>
  <path id="door_mirror" d="M74.091,14.885H55.534a.911.911,0,0,0-.646,1.552l3.537,3.537L46.789,31.61q-2.893-.958-6.479-1.773c-.739-.168-1.54-.34-2.387-.509l-8.792-8.792a1.1,1.1,0,1,0-1.551,1.551h0L34.1,28.609c-5.182-.919-11.057-1.741-14.972-2.056a5.392,5.392,0,0,0-5.8,4.947,5.5,5.5,0,0,0,.023,1.087c.726,5.943,1.666,11.564,2.795,16.718l-8.874-.574A2.126,2.126,0,0,0,5.006,50.71a2.064,2.064,0,0,0,.016.441L6.686,62.915a2.127,2.127,0,0,0,2.107,1.829h15.2v-.012c.152.012.306.021.46.021h.03C45.053,64.658,51.827,63.73,56,60.445,59.723,57.5,60,48.178,58.971,42.418L69.912,31.452,73.449,35A.91.91,0,0,0,75,34.352V15.79a.91.91,0,0,0-.91-.91h0M53.174,56.874c-2.763,2.186-7.763,3.241-28.713,3.329a.844.844,0,0,1-.809-.574A101.134,101.134,0,0,1,20.634,48.57c-1.122-5.091-2.055-10.647-2.774-16.541a.845.845,0,0,1,.231-.7.812.812,0,0,1,.672-.254A178.493,178.493,0,0,1,39.3,34.272l.6.138,2.044,2.044-8.6,8.6-10.94-11.16a1.1,1.1,0,0,0-1.566,1.538l1.762,1.8h0l.075.075,9.4,9.594a1.078,1.078,0,0,0,.663.317.836.836,0,0,0,.254.04H53.726a.916.916,0,0,0,.644-.266l.522-.522c.049.828.072,1.71.059,2.63-.068,4.422-.97,7.123-1.775,7.76M17.85,22.743a7.141,7.141,0,0,0,7.1-7.1c0-4.554-4.666-10.367-7.1-13.545-2.434,3.178-7.1,8.99-7.1,13.545a7.141,7.141,0,0,0,7.1,7.1" transform="translate(9.999 16.574)" fill="#003b8b"/>
</svg>
