<?xml version="1.0" encoding="UTF-8"?><svg id="filter_change" xmlns="http://www.w3.org/2000/svg" viewBox="0 0 100 100">
    <path
        d="M99.993,37.79c.015,.057,.007,.118-.025,.167l-11.143,18.451c-.02,.034-.049,.062-.083,.08-.036,.021-.076,.032-.119,.032-.082,.001-.158-.041-.201-.111l-11.143-18.451c-.021-.033-.032-.071-.032-.111,.003-.125,.107-.224,.232-.221h5.836l-.461-1.29c-3.697-9.971-11.824-17.654-21.987-20.785-3.515-1.109-7.179-1.674-10.865-1.674-13.945-.168-26.634,8.035-32.205,20.821l-.173-.287c-1.333-2.152-3.691-3.456-6.223-3.44-.154,0-.293,0-.438,.012,5.409-11.687,15.869-20.256,28.393-23.258,3.496-.866,7.083-1.305,10.684-1.307,19.362,0,36.278,12.533,41.138,30.479l.197,.729h8.393c.103,0,.193,.067,.224,.164Zm-17.611,27.795l-.172-.287c-5.569,12.785-18.258,20.988-32.202,20.819-3.685,0-7.35-.565-10.864-1.674-10.162-3.132-18.288-10.814-21.985-20.784l-.461-1.29h5.827c.045,.003,.09-.009,.129-.033,.102-.064,.133-.198,.069-.301l-11.143-18.451c-.068-.107-.206-.142-.317-.08-.035,.018-.064,.046-.085,.08L.033,62.032c-.003,.005-.006,.01-.009,.016-.055,.106-.013,.237,.094,.292,.034,.02,.074,.03,.114,.029H8.628l.196,.731c4.858,17.949,21.775,30.483,41.14,30.483l.003-.003c3.6-.002,7.185-.44,10.679-1.305,12.526-3.002,22.988-11.572,28.397-23.261-.146,.014-.29,.014-.437,.014-2.533,.016-4.892-1.288-6.225-3.442Zm-49.677,1.963c-.944-.065-1.659-.879-1.602-1.823v-30.477c-.056-.944,.659-1.757,1.602-1.822h34.173c.941,.068,1.652,.88,1.596,1.822v30.48c.055,.941-.656,1.752-1.596,1.82H32.706Zm31.851-5.658c.092-.667-.374-1.283-1.041-1.375h-27.45c-.541,.075-.966,.5-1.041,1.041-.092,.667,.374,1.283,1.041,1.375h27.45c.541-.075,.966-.5,1.041-1.041Zm0-7.491c.092-.667-.374-1.283-1.041-1.375h-27.45c-.541,.075-.966,.5-1.041,1.041-.092,.667,.374,1.283,1.041,1.375h27.45c.541-.075,.966-.5,1.041-1.041Zm-29.543-15.303c-.086,.667,.385,1.278,1.052,1.364h27.45v-.002c.625-.043,1.1-.581,1.063-1.207,.037-.626-.437-1.164-1.063-1.207h-27.45c-.549,.071-.982,.503-1.052,1.052Zm0,7.491c-.086,.667,.385,1.278,1.052,1.364h27.45c.549-.071,.982-.503,1.052-1.052,.086-.667-.385-1.278-1.052-1.364h-27.45c-.549,.071-.982,.503-1.052,1.052Z"
        fill="#003b8b" />
</svg>