<svg id="icon" xmlns="http://www.w3.org/2000/svg" width="100" height="100" viewBox="0 0 100 100">
  <rect id="Rectangle_171" data-name="Rectangle 171" width="100" height="100" fill="none"/>
  <path id="water_repellent" d="M97.631,52.4h-5.6a4.535,4.535,0,0,0-3,1.115l-1.425,1.254c-2.1-4.542-6.885-14.346-9.912-16.4a14.47,14.47,0,0,0-5.221-1.6l3.869-3.648,3.571,3.367a.961.961,0,0,0,1,.185.87.87,0,0,0,.567-.8V18.2a.9.9,0,0,0-.919-.867H61.83a.933.933,0,0,0-.85.535.831.831,0,0,0,.2.944l3.571,3.367-14.3,13.487H48.918L35.17,22.706a1.155,1.155,0,0,0-1.567,0,1,1,0,0,0-.062,1.415c.021.021.04.042.063.062l12.2,11.5a122.4,122.4,0,0,0-16.077,1.035l-1.346-1.3a1.155,1.155,0,0,0-1.567-.015,1,1,0,0,0-.073,1.417.8.8,0,0,0,.058.06l.362.348A9.451,9.451,0,0,0,24.3,38.347c-3.029,2.056-7.8,11.86-9.912,16.4l-1.427-1.237a4.539,4.539,0,0,0-3-1.115h-5.6A3.273,3.273,0,0,0,1,55.563a3.211,3.211,0,0,0,2.475,3.06l6.814,1.76L6.054,64.974c44.824.133,89.975.219,89.952,0l-.362-.327-3.931-4.262,6.812-1.762A3.211,3.211,0,0,0,101,55.561a3.275,3.275,0,0,0-3.367-3.167M45.618,40.21l-6.185,5.831-5.521-5.308c2.71-.244,6.479-.446,11.7-.529M51,56.782c-11.021,0-22.156.558-33.126,1.633,3.69-7.489,8.256-15.633,9.223-16.4a11.1,11.1,0,0,1,4.029-.969l7.044,6.769a1.11,1.11,0,0,0,.671.3.982.982,0,0,0,.258.04H60.009a.959.959,0,0,0,.65-.252l7.585-7.15c5.135.469,6.392,1.077,6.652,1.256.977.779,5.544,8.916,9.233,16.412C73.157,57.334,62.022,56.784,51,56.784M20.693,25.116a6.777,6.777,0,0,0,6.735-6.735c0-4.321-4.427-9.837-6.735-12.852-2.308,3.015-6.735,8.531-6.735,12.852a6.777,6.777,0,0,0,6.735,6.735" transform="translate(-1 14.682)" fill="#003b8b"/>
</svg>
