<svg id="icon" xmlns="http://www.w3.org/2000/svg" width="100" height="80" viewBox="0 0 100 80">
  <rect id="Rectangle_149" data-name="Rectangle 149" width="100" height="80" fill="none"/>
  <path id="safety_check" d="M76.825,30.868a14.756,14.756,0,0,0,11-3.435,12.086,12.086,0,0,0,3.906-10.668,1.123,1.123,0,0,0-1.281-.905,1.175,1.175,0,0,0-.646.3l-5.341,5.019a2.353,2.353,0,0,1-2.155.553l-4.559-1.08a2.1,2.1,0,0,1-1.569-1.475L75.039,14.9a2.032,2.032,0,0,1,.589-2.025L80.972,7.86a1.018,1.018,0,0,0,0-1.505,1.167,1.167,0,0,0-.646-.3A13.849,13.849,0,0,0,68.98,9.722a12.832,12.832,0,0,0-3.655,10.339c.241,3.642-.293,4.644-1.778,6.041l-9.109,8.559L40.011,20.694a2.214,2.214,0,0,0,.636-1.878,5.564,5.564,0,0,1,1.9-5.309C46.887,9.7,52.886,9.571,57.016,9.79a.86.86,0,0,0,.872-.53V9.242a.919.919,0,0,0-.5-1.141l.007.009C41.568.44,30.411,9.382,30.411,9.382L29.253,10.4a2.455,2.455,0,0,0-2.95.163l-3.454,3.033a2.1,2.1,0,0,0-.375,2.751l-.69.607a1.811,1.811,0,0,0-.589,1.54,5.921,5.921,0,0,1-5.662,6.235,6.651,6.651,0,0,1-1.413-.047,2.011,2.011,0,0,0-1.627.436l-3.757,3.3a1.762,1.762,0,0,0-.276,2.324,29.282,29.282,0,0,0,3.665,4.583,30.571,30.571,0,0,0,4.621,3.747,2.057,2.057,0,0,0,2.483-.1l3.757-3.3a1.747,1.747,0,0,0,.574-1.5A5.918,5.918,0,0,1,29.2,27.918a6.5,6.5,0,0,1,1.413.042,2.076,2.076,0,0,0,1.676-.45l.412-.364L46.783,41.851l-7.127,6.7c-1.485,1.4-2.709,2.044-6.586,1.818a14.042,14.042,0,0,0-10.7,3.435,11.7,11.7,0,0,0-.432,17.267c.052.051.1.1.159.154l.137.126.134.126a13.592,13.592,0,0,0,18.379-.1c.055-.051.109-.1.161-.156a12.227,12.227,0,0,0,3.655-10.043h0c-.241-3.642.449-4.791,1.934-6.188l6.767-6.359L76.122,72.484a6.516,6.516,0,0,0,8.8.443c.03-.026.06-.049.087-.075v-.009a5.61,5.61,0,0,0,.308-8.277l-.089-.089L61.178,41.193l9.21-8.655c1.485-1.4,2.548-1.9,6.429-1.671ZM38.377,62.045,37.2,66.175a2.389,2.389,0,0,1-1.738,1.633l-4.4,1.106a2.565,2.565,0,0,1-2.374-.6h0l-3.218-3.024a2.214,2.214,0,0,1-.636-2.231l1.177-4.13A2.383,2.383,0,0,1,27.751,57.3l4.4-1.106a2.565,2.565,0,0,1,2.374.6l3.218,3.024a2.219,2.219,0,0,1,.638,2.231Z" transform="translate(0.001 -0.001)" fill="#333"/>
</svg>
