<?xml version="1.0" encoding="UTF-8"?><svg id="_light_change" xmlns="http://www.w3.org/2000/svg"
    viewBox="0 0 100 100">
    <path
        d="M54.227,68.141h-9.692c-.583,.022-1.074-.432-1.096-1.016-.022-.583,.433-1.074,1.016-1.096,.026-.001,.053-.001,.08,0h9.692c.583,.022,1.038,.513,1.015,1.096-.021,.552-.463,.995-1.015,1.016Zm-9.099,1.324c-.552,.021-.994,.464-1.015,1.016-.022,.583,.432,1.074,1.015,1.096h8.518c.027,0,.054,0,.08,0,.583-.022,1.038-.513,1.016-1.096-.023-.583-.513-1.038-1.096-1.016h-8.518Zm-7.924-23.747c-.007,1.418,.253,2.825,.768,4.147,.584,1.428,1.257,2.817,2.015,4.161,.337,.633,.685,1.289,1.064,2.024,.535,1.147,.88,2.373,1.024,3.631,.037,.281,.072,.564,.104,.836,.07,.864,.229,1.718,.475,2.55,.136,.423,.373,.807,.69,1.118,.378,.354,.879,.547,1.396,.541h9.284c.518,.008,1.018-.186,1.396-.541,.317-.312,.553-.695,.69-1.118,.245-.831,.405-1.686,.475-2.55,.032-.272,.067-.555,.106-.836,.143-1.258,.489-2.484,1.024-3.631,.379-.736,.728-1.392,1.064-2.024,.757-1.343,1.43-2.733,2.014-4.161,.514-1.322,.775-2.729,.768-4.147,0-1.629-.327-3.241-.965-4.74-2.613-6.196-9.754-9.1-15.949-6.487-4.514,1.904-7.448,6.328-7.444,11.227Zm25.519-15l-2.863,2.878c-.196,.197-.305,.464-.306,.742,0,.584,.472,1.057,1.055,1.058,.281,0,.55-.111,.748-.31l2.863-2.878c.412-.414,.409-1.082-.004-1.494-.414-.411-1.082-.41-1.494,.004Zm-8.332-.2l1.033-3.926c.006-.021,.012-.042,.016-.063,.131-.569-.223-1.136-.792-1.267-.569-.131-1.136,.224-1.267,.792l-1.032,3.926c-.023,.088-.035,.179-.034,.27,0,.583,.473,1.055,1.056,1.054,.479,0,.898-.323,1.02-.786Zm-8.316-.461l-1.075-3.915c-.155-.562-.736-.893-1.298-.739-.562,.154-.893,.735-.739,1.298l1.075,3.915c.125,.459,.542,.777,1.018,.777,.093,0,.186-.013,.276-.037,.564-.154,.897-.735,.743-1.299Zm-1.018,1.336s0,0,0,0c0,0,0,0,0,0h.002Zm-9.299-.412c-.409-.377-1.041-.372-1.444,.011-.423,.402-.44,1.071-.038,1.494l2.893,2.848c.196,.196,.463,.306,.74,.307v-.003c.285,0,.556-.114,.754-.316,.409-.416,.403-1.084-.013-1.492l-2.893-2.849Zm-6.859,9.583c-.146,.565,.193,1.141,.757,1.287l3.934,1.014c.086,.023,.175,.034,.264,.034h0c.484,.002,.908-.327,1.027-.796,.143-.565-.199-1.139-.764-1.282l-3.932-1.014c-.565-.146-1.141,.193-1.286,.758Zm34.77,.641c.004,.583,.478,1.053,1.061,1.049,.1,0,.199-.015,.295-.043l3.9-1.133c.56-.163,.882-.749,.719-1.308-.163-.56-.748-.882-1.309-.719l-3.898,1.133c-.456,.129-.77,.547-.768,1.021Zm36.099-3.581h-8.394l-.196-.729c-4.86-17.946-21.777-30.479-41.138-30.479-3.601,.002-7.188,.441-10.684,1.307-12.524,3.002-22.984,11.571-28.393,23.258,.145-.012,.284-.012,.438-.012,2.532-.015,4.89,1.288,6.223,3.44l.173,.287c5.571-12.786,18.259-20.989,32.205-20.821,3.686,0,7.35,.565,10.865,1.674,10.163,3.131,18.29,10.814,21.987,20.785l.461,1.29h-5.836c-.125-.002-.229,.096-.232,.221,0,.039,.011,.077,.032,.111l11.143,18.451c.043,.07,.119,.112,.201,.111,.042,0,.083-.011,.119-.032,.034-.018,.064-.046,.083-.08l11.143-18.451c.031-.05,.04-.111,.025-.167-.031-.098-.122-.164-.224-.164Zm-17.386,27.959l-.172-.287c-5.569,12.785-18.258,20.988-32.202,20.819-3.685,0-7.35-.565-10.864-1.674-10.162-3.132-18.288-10.814-21.985-20.784l-.461-1.29h5.827c.045,.003,.09-.009,.129-.033,.102-.064,.133-.198,.069-.301l-11.143-18.451c-.067-.107-.206-.142-.316-.08-.035,.018-.065,.046-.085,.08L.033,62.032c-.003,.005-.006,.01-.009,.016-.055,.106-.013,.237,.094,.292,.035,.02,.074,.03,.114,.029H8.628l.196,.731c4.858,17.949,21.775,30.483,41.14,30.483l.003-.003c3.6-.002,7.185-.44,10.679-1.305,12.526-3.002,22.988-11.572,28.397-23.261-.146,.014-.29,.014-.436,.014-2.533,.016-4.892-1.288-6.225-3.442Z"
        fill="#003b8b" />
</svg>