<svg xmlns="http://www.w3.org/2000/svg" width="100" height="100" viewBox="0 0 100 100">
  <g id="Group_166" data-name="Group 166" transform="translate(-951 -4163)">
    <circle id="Ellipse_7" data-name="Ellipse 7" cx="50" cy="50" r="50" transform="translate(951 4163)" fill="#003b8b"/>
    <path id="Path_131" data-name="Path 131" d="M36.95,13.891a21.341,21.341,0,0,0,.641,5.977,2.579,2.579,0,0,0,2.625,2.07,2.544,2.544,0,0,0,2.6-2.07,22.113,22.113,0,0,0,.617-5.977,21.866,21.866,0,0,0-.617-6.062,2.521,2.521,0,0,0-2.6-1.969,2.558,2.558,0,0,0-2.625,1.969A21.1,21.1,0,0,0,36.95,13.891Zm3.266-11.7q4.328,0,6.07,3.047t1.742,8.656q0,5.609-1.742,8.641t-6.07,3.031q-4.328,0-6.07-3.031T32.4,13.891q0-5.609,1.742-8.656T40.216,2.188Zm15.8,15.859a5.094,5.094,0,0,0,.438,2.25,3,3,0,0,0,2.953,1.641,3.272,3.272,0,0,0,2.289-.9,3.338,3.338,0,0,0,.977-2.586,2.913,2.913,0,0,0-1.812-2.984,9.2,9.2,0,0,0-3.25-.422V11.859a8.432,8.432,0,0,0,3.031-.422,2.606,2.606,0,0,0,1.484-2.656,2.969,2.969,0,0,0-.758-2.109,2.773,2.773,0,0,0-2.133-.812,2.7,2.7,0,0,0-2.32,1,4.243,4.243,0,0,0-.711,2.672H52.05a11.175,11.175,0,0,1,.578-3.2,7.21,7.21,0,0,1,1.719-2.453,5.988,5.988,0,0,1,2.078-1.219,8.993,8.993,0,0,1,2.953-.422,7.859,7.859,0,0,1,5.242,1.68,5.6,5.6,0,0,1,1.992,4.508A4.984,4.984,0,0,1,65.425,11.8a4.055,4.055,0,0,1-1.562,1.172,3.214,3.214,0,0,1,1.75,1.047,5.591,5.591,0,0,1,1.7,4.313,7.263,7.263,0,0,1-1.992,5.055,7.594,7.594,0,0,1-5.9,2.18q-4.812,0-6.687-3.141a9.321,9.321,0,0,1-1.094-4.375Z" transform="translate(951 4197)" fill="#fff"/>
  </g>
</svg>
