<?xml version="1.0" encoding="UTF-8"?><svg id="oil_change" xmlns="http://www.w3.org/2000/svg" viewBox="0 0 100 100">
    <path
        d="M43.935,43.976v-2.073h-1.428c-.73,0-1.322-.592-1.322-1.322s.592-1.322,1.322-1.322h5.665c.73,0,1.322,.592,1.322,1.322s-.592,1.322-1.322,1.322h-1.594v2.072h4.694c.292,0,.576,.098,.807,.276l3.9,3.015,13.019-5.629c.152-.066,.316-.102,.482-.107h.023c.374-.036,.745,.089,1.021,.343l2.982,2.743c.53,.49,.568,1.316,.085,1.853-.014,.018-.03,.034-.046,.05-.493,.495-1.286,.521-1.811,.059l-1.943-1.723-11.325,15.342c-.25,.337-.644,.536-1.064,.536h-19.675c-.73,.002-1.323-.589-1.324-1.318v-9.343l-7.733-2.976c-.51-.196-.847-.686-.847-1.232v-3.521c0-.095,.01-.19,.03-.283,.157-.713,.862-1.164,1.575-1.008l8.586,1.892c.511,.115,.905,.52,1.006,1.034h4.916Zm29.846,13.906c1.46,.079,2.709-1.04,2.788-2.501,.005-.096,.005-.192,0-.287,.004-1.696-1.734-3.857-2.644-5.042-.908,1.186-2.644,3.346-2.644,5.042-.079,1.46,1.04,2.709,2.501,2.788Zm26.1-20.232c-.035-.02-.074-.03-.113-.029h-8.395l-.195-.73c-4.865-17.947-21.781-30.482-41.146-30.482-3.602,.002-7.189,.441-10.685,1.307-12.525,3.002-22.987,11.572-28.397,23.26,.146-.013,.292-.013,.438-.013,2.532-.016,4.89,1.288,6.224,3.441l.174,.288c5.257-12.536,17.935-20.824,32.209-20.824,3.686,0,7.35,.566,10.866,1.675,10.164,3.132,18.291,10.816,21.989,20.788l.461,1.29h-5.833c-.125-.002-.228,.097-.231,.221,0,.039,.012,.078,.032,.111l11.144,18.453c.043,.07,.12,.112,.202,.11,.04,0,.08-.01,.115-.03,.035-.018,.064-.046,.084-.08l11.145-18.453c.031-.05,.039-.111,.024-.168-.017-.058-.057-.107-.111-.136Zm-17.491,27.943l-.174-.293c-5.256,12.534-17.932,20.822-32.205,20.822-3.686,0-7.35-.565-10.866-1.674-10.163-3.133-18.289-10.816-21.987-20.787l-.461-1.29h5.828c.124,.003,.228-.096,.231-.22,0-.04-.012-.078-.032-.112l-11.145-18.453c-.043-.069-.119-.111-.201-.11-.04,0-.08,.011-.115,.03-.034,.019-.063,.046-.083,.08L.031,62.035s-.005,.008-.007,.013c-.055,.106-.014,.236,.092,.291,.035,.019,.074,.029,.113,.029H8.628l.195,.73c4.862,17.949,21.779,30.486,41.146,30.486v.008c3.601-.002,7.187-.441,10.682-1.307,12.527-3.002,22.991-11.573,28.401-23.264-.145,.009-.292,.014-.437,.014-2.533,.016-4.891-1.288-6.224-3.442Z"
        fill="#003b8b" />
</svg>