<?xml version="1.0" encoding="UTF-8"?><svg id="puncture_repair" xmlns="http://www.w3.org/2000/svg"
    viewBox="0 0 100 100">
    <path 
        d="M96.223,15.855h-11.974c-1.196,.016-2.154,.999-2.139,2.195h-6.634c.015-1.197-.942-2.179-2.139-2.195h-11.974c-1.93-.011-3.556,1.44-3.765,3.358-.222,2.024,1.239,3.845,3.263,4.067,.115,.013,.231,.02,.347,.022h14.768v9.787h-.437c-1.889,0-3.42,1.531-3.42,3.42v41.165h-.475c-1.424,0-2.827,.34-4.094,.99-4.578-.475-7.67-2.556-9.078-11.565-1.373-8.782-3.251-14.266-8.271-15.976,0-.373,.011-.748,.011-1.121,0-13.577-3.017-27.267-8.858-33.81-2.319-2.922-5.01-4.559-7.928-4.559-.346,.003-.691,.028-1.033,.077h-15.089c-3.88,0-9.344,2.243-13.332,12.93C1.206,32.804-.134,41.383,.011,50.002c-.145,8.618,1.195,17.197,3.962,25.36,3.988,10.688,9.451,12.93,13.332,12.93h15.09c.342,.048,.687,.074,1.033,.076,2.917,0,5.608-1.636,7.925-4.557,4.924-5.519,7.838-16.134,8.629-27.465,1.495,1.36,2.697,4.456,3.796,11.479,1.525,9.755,5.339,13.456,9.787,14.86-.622,1.242-.946,2.61-.949,3.999v.12h31.742v-.12c0-4.934-3.966-8.952-8.899-9.016V36.491c0-1.889-1.531-3.42-3.42-3.42h-.437v-9.787h14.766c2.036-.031,3.662-1.706,3.631-3.742-.002-.116-.009-.232-.022-.347-.217-1.908-1.835-3.347-3.755-3.34Zm-62.788,62.776c-.101-.001-.201-.011-.301-.028-1.544-.791-4.888-6.158-6.498-16.369,.614,1.129,1.321,1.778,2.074,1.778,2.352,0,4.258-6.269,4.258-14.002s-1.906-14.001-4.258-14.001c-.753,0-1.46,.65-2.074,1.778,1.609-10.209,4.953-15.579,6.495-16.367,.1-.018,.201-.027,.302-.028,.769,.071,1.481,.433,1.992,1.012,2.588,3.406,6.228,12.327,6.228,27.609s-3.638,24.202-6.228,27.606c-.51,.579-1.222,.941-1.99,1.012Z"
        fill="#003b8b" />
</svg>