<svg xmlns="http://www.w3.org/2000/svg" width="50" height="53.1" viewBox="0 0 50 53.1">
  <g id="Group_174" data-name="Group 174" transform="translate(-91 -441)">
    <path id="Path_133" data-name="Path 133" d="M15.43,3.167l-.561.539a10.536,10.536,0,0,1,1.7,1.441l.572-.561A10.518,10.518,0,0,0,15.43,3.167ZM15.188,5.8l-.572.55a11.055,11.055,0,0,1,1.738,1.606l.561-.561A12.337,12.337,0,0,0,15.188,5.8Zm.968,2.915a36.7,36.7,0,0,1-1.54,3.894l.792.341A36.853,36.853,0,0,0,16.86,9Zm2.629-3.256h1.749V7.523H17.377v.759h2.057a6.292,6.292,0,0,1-.4,2.2,4.207,4.207,0,0,1-2.134,1.98l.528.638a4.582,4.582,0,0,0,2.387-2.42,7.989,7.989,0,0,0,.385-2.4h1.342v3.663a1.054,1.054,0,0,0,.231.693.83.83,0,0,0,.66.264h.88a.926.926,0,0,0,.781-.308,5.606,5.606,0,0,0,.352-2.057l-.726-.242a4.753,4.753,0,0,1-.231,1.738.489.489,0,0,1-.352.143h-.462c-.242,0-.352-.143-.352-.418V8.282h1.947V7.523H21.348V5.455h2.42V4.7h-2.42V3.068h-.814V4.7h-1.5c.121-.385.231-.781.319-1.2l-.77-.165a10.4,10.4,0,0,1-1.221,3.2l.715.451A11.506,11.506,0,0,0,18.785,5.455Zm7.909.154V9.888h3.432v.946H25.638v.77h4.488v1.5h.8V11.6h4.444v-.77H30.929V9.888h3.4V5.609h-3.4V4.685h4.29V3.937h-4.29V3h-.8v.935H25.792v.748h4.334v.924Zm6.875,3.542h-2.64V8.106h2.64Zm-3.443,0H27.453V8.106h2.673Zm-2.673-1.76V6.335h2.673V7.391Zm3.476-1.056h2.64V7.391h-2.64Z" transform="translate(91 481)" fill="#333"/>
    <g id="icon" transform="translate(91 441)">
      <rect id="Rectangle_149" data-name="Rectangle 149" width="50" height="40" fill="#fff"/>
      <path id="car_wash" d="M40.575,9.89l-.006-.007-4.759-6.3a.388.388,0,0,0-.495-.106.467.467,0,0,0-.047.03l-10.65,8.048a.386.386,0,0,0-.075.541l1.286,1.7c-1.9-.179-4.121-.18-5.279-.18-1.979,0-7.075,0-8.312.891-.943.679-2.432,3.917-3.086,5.417l-.443-.414a1.368,1.368,0,0,0-.933-.368H6.034a1.05,1.05,0,0,0-.277,2.058l2.121.582L6.469,23.407a3.9,3.9,0,0,0-.96,2.562V35.7a.865.865,0,0,0,.865.865H9.825a.864.864,0,0,0,.86-.865V33.959H30.417V35.7a.865.865,0,0,0,.865.865h3.451a.864.864,0,0,0,.86-.865V25.969a3.9,3.9,0,0,0-.959-2.563l-1.408-1.615,2.121-.582a1.049,1.049,0,0,0-.279-2.061H33.325a1.365,1.365,0,0,0-.933.368l-.443.414c-.251-.577-.627-1.41-1.046-2.256l.276-.208a5.05,5.05,0,0,1-.7-1.083c-.566-1.2-1.106-2.29-1.865-3.765a.81.81,0,0,1-.056-.694.882.882,0,0,1,.557-.48,1,1,0,0,1,.209-.047,1.237,1.237,0,0,1,.6.094,1.8,1.8,0,0,1,.942.885c-.1-.911-.247-2.1-.352-2.956-.056-.473-.1-.878-.124-1.041a.979.979,0,0,1,.777-1.071c.029-.006.06-.011.09-.015a.934.934,0,0,1,.51.082.985.985,0,0,1,.857-.818,1.111,1.111,0,0,1,.288.005.936.936,0,0,1,.751.6,1.058,1.058,0,0,1,.515-.2c.03,0,.06-.006.09-.007a.989.989,0,0,1,1.04.934V7.89l.032.278a1.033,1.033,0,0,1,.424-.163.987.987,0,0,1,.762.178,1.033,1.033,0,0,1,.39.727c.085.7.167,1.41.246,2.094l.209,1.787,3.122-2.36a.387.387,0,0,0,.076-.541ZM13.107,15.723h0c.141-.1,1.166-.611,7.442-.611a41.044,41.044,0,0,1,6.53.345L29.3,18.4a.383.383,0,0,0,.316.146q.669,1.276,1.248,2.6a98.934,98.934,0,0,0-20.631,0A39.729,39.729,0,0,1,13.107,15.723ZM11.958,26.59c0,1.059-1.155,1.533-2.513,1.323A2.04,2.04,0,0,1,7.527,26a1.918,1.918,0,0,1,1.918-1.918,2.463,2.463,0,0,1,2.513,2.412v.1Zm12.157,3.767a.335.335,0,0,1-.335.335H17.318a.335.335,0,0,1-.331-.335V29.145a.335.335,0,0,1,.335-.335h6.464a.335.335,0,0,1,.335.335Zm7.543-6.28a1.918,1.918,0,0,1,1.918,1.918l0,0a2.041,2.041,0,0,1-1.916,1.921c-1.359.209-2.513-.264-2.513-1.323a2.463,2.463,0,0,1,2.412-2.513h.1Zm5.529-9.89a6.208,6.208,0,0,1-.13,2.087,2.9,2.9,0,0,1-1,1.6,3.181,3.181,0,0,1-1.642.677A3.024,3.024,0,0,1,32,17.825a5.13,5.13,0,0,1-1.2-1.589c-.567-1.2-1.108-2.3-1.87-3.776a.478.478,0,0,1-.043-.4.531.531,0,0,1,.345-.282.656.656,0,0,1,.138-.031.9.9,0,0,1,.438.073,1.546,1.546,0,0,1,.824.846c.082.17.183.336.28.5a5.623,5.623,0,0,1,.3.537c.041.086.082.081.095.079a.1.1,0,0,0,.023-.006c.03-.012.034-.025.029-.1v-.021c-.025-.46-.539-4.665-.61-5.3a.632.632,0,0,1,.5-.692l.06-.01.039,0a.651.651,0,0,1,.667.635c.178,1.516.312,2.677.434,3.765a.184.184,0,0,0,.037.115.081.081,0,0,0,.061.009.1.1,0,0,0,.069-.03.163.163,0,0,0,.011-.113c-.055-.415-.1-.838-.152-1.247-.012-.109-.025-.218-.038-.327L32.376,9.9l-.013-.11c-.082-.7-.167-1.42-.245-2.129l-.006-.038a.651.651,0,0,1,.564-.727.764.764,0,0,1,.2,0,.659.659,0,0,1,.547.655c.18,1.54.343,2.948.5,4.306l0,0c.008.072.018.152.053.18a.089.089,0,0,0,.069.012.084.084,0,0,0,.056-.022.252.252,0,0,0,0-.132c0-.017,0-.034-.007-.051-.154-1.3-.305-2.571-.446-3.838,0-.013,0-.026,0-.039a.635.635,0,0,1,.586-.68l.063-.005h.031a.643.643,0,0,1,.652.633c.083.739.166,1.481.246,2.2l.009.076q.083.745.166,1.49l0,.007c0,.054.012.126.041.149a.085.085,0,0,0,.07.006c.067-.013.1-.035.076-.195-.11-.846-.212-1.723-.305-2.609,0-.006,0-.012,0-.017a.622.622,0,0,1,.546-.689.661.661,0,0,1,.108-.012.63.63,0,0,1,.646.614c.086.7.167,1.408.246,2.094l.085.739c.032.277.062.535.092.785.063.532.123,1.033.185,1.627ZM45,13.446l-1.919,1.323-.9,2.149L40.857,15l-2.15-.9,1.919-1.323.9-2.15,1.323,1.919,2.15.9Zm-4.006,8.409,1.273.534-1.132.783L40.6,24.446l-.784-1.136-1.274-.535,1.134-.782.535-1.274L41,21.855Z" transform="translate(0 0.001)" fill="#333"/>
    </g>
  </g>
</svg>
