<svg xmlns="http://www.w3.org/2000/svg" width="50" height="63.671" viewBox="0 0 50 63.671">
  <g id="Group_176" data-name="Group 176" transform="translate(-91 -555.5)">
    <path id="Path_135" data-name="Path 135" d="M23.087,3.277a9.929,9.929,0,0,1-1.3,2.541A12.011,12.011,0,0,1,19.743,8l.583.572a11.161,11.161,0,0,0,2.1-2.211c.209-.3.407-.594.583-.9h3.74a8.8,8.8,0,0,1-1.3,3.058c-.308-.22-.638-.44-1-.66-.572-.352-1.122-.66-1.628-.924l-.506.616a16,16,0,0,1,1.639.946c.352.231.693.462,1,.682-.033.044-.066.077-.1.121A9.453,9.453,0,0,1,21.129,11.9l.462.737a9.669,9.669,0,0,0,4.147-3.091,10.1,10.1,0,0,0,1.969-4.6l-.528-.3h-3.74A11.946,11.946,0,0,0,23.89,3.53Zm14.872.088a22.714,22.714,0,0,1-3.41,2.882,23.156,23.156,0,0,1-4.081,2.321l.451.726a23.449,23.449,0,0,0,3.839-2.112V12.55h.858V6.577a21.242,21.242,0,0,0,2.992-2.651Zm11.979,2.1-4.9.836-.561-2.838-.869.176.561,2.816-2.706.462.143.825,2.728-.484,1.067,5.368.858-.176L45.2,7.105l4.1-.737a12.614,12.614,0,0,1-2.31,2.618l.605.6a13.657,13.657,0,0,0,2.937-3.652ZM14.617,15.1v3.41h.858V15.894h6.039a8.7,8.7,0,0,1-1.232,4.345,6.791,6.791,0,0,1-3.454,2.728l.517.7a7.206,7.206,0,0,0,3.872-3.289,10.7,10.7,0,0,0,1.177-4.972l-.506-.308Zm14.091,1.8-.682.4a25.963,25.963,0,0,1,1.4,2.332l.693-.407c-.2-.374-.407-.759-.649-1.133Q29.153,17.583,28.708,16.906Zm3.355.3a8.214,8.214,0,0,1-1.386,3.5,6.839,6.839,0,0,1-3,2.156l.462.682a7.211,7.211,0,0,0,3.256-2.376,9.346,9.346,0,0,0,1.5-3.817Zm-5.28.352-.693.418a21.82,21.82,0,0,1,1.4,2.31l.682-.418A22.869,22.869,0,0,0,26.783,17.555Zm12.8-3.256a10.231,10.231,0,0,1-1.3,2.53A11.306,11.306,0,0,1,36.232,19l.594.572a10.835,10.835,0,0,0,2.145-2.233c.165-.242.319-.484.473-.737h3.718a8.422,8.422,0,0,1-1.98,3.938A9.044,9.044,0,0,1,37.651,22.9l.451.737a9.626,9.626,0,0,0,4.059-2.926,10.194,10.194,0,0,0,1.98-4.631l-.528-.286h-3.74c.187-.4.363-.814.517-1.232Zm12.2,5.962c.6.407,1.232.869,1.87,1.4A18.118,18.118,0,0,1,55.7,23.539l.671-.561a17.776,17.776,0,0,0-2.134-1.958q-.94-.759-1.914-1.419a17.3,17.3,0,0,0,2.134-3.883l-.539-.363H47.936v.8h5.379a12.8,12.8,0,0,1-6.5,6.721l.528.7a14.63,14.63,0,0,0,4.422-3.3Z" transform="translate(81 595.5)" fill="#333"/>
    <g id="icon" transform="translate(91 555.5)">
      <rect id="Rectangle_149" data-name="Rectangle 149" width="50" height="40" fill="#fff"/>
      <path id="tire_wax" d="M5.734,19.564c.473-.424,2.12-2.046,2.12-2.046a1.274,1.274,0,0,1,.866-.347h4.719v1.438H11.156L10.1,21.2H7.524l-.076-.862-1.657.029s-.857-.083-.058-.8Zm7.994-1.118.862-.233v-.557l-.862-.305v1.1ZM7.113,22.635h3.451V21.484H7.113Zm7.335-.575A5.066,5.066,0,0,1,13.12,18.9H11.546a4.879,4.879,0,0,0,2.339,3.433c.42.252.562.215.628.13A.281.281,0,0,0,14.448,22.06Zm-3.89,1.51V22.9H7.119v.671a3.655,3.655,0,0,0-2.528,3.466v7.4h8.494v-7.4a3.656,3.656,0,0,0-2.529-3.466ZM45.412,20A14.64,14.64,0,1,1,30.772,5.36,14.641,14.641,0,0,1,45.412,20Zm-3.3,0A11.345,11.345,0,1,0,30.771,31.345,11.345,11.345,0,0,0,42.116,20Zm-2.063-.646s-1.883.227-3.5.595c-1.126.257-2.014.378-2.29,1.21s.364,1.46,1.113,2.339c1.079,1.262,2.451,2.569,2.451,2.569a9.333,9.333,0,0,0,2.227-6.712Zm-9.281,4.324c-.877,0-1.271.805-1.869,1.793-.858,1.419-1.667,3.135-1.667,3.135a9.33,9.33,0,0,0,7.072,0s-.808-1.716-1.667-3.135c-.6-.988-.992-1.793-1.869-1.793Zm-3.5-2.547c-.27-.834-1.156-.962-2.281-1.227-1.618-.381-3.5-.622-3.5-.622a9.334,9.334,0,0,0,2.175,6.729s1.387-1.3,2.47-2.55c.756-.873,1.4-1.5,1.131-2.33Zm5.675-4.1h0c.707.518,1.5.1,2.567-.341,1.532-.636,3.2-1.541,3.2-1.541a9.334,9.334,0,0,0-5.7-4.183s-.364,1.862-.511,3.514c-.1,1.15-.26,2.033.447,2.551Zm-4.328-.018v0c.711-.513.56-1.4.466-2.547-.134-1.654-.484-3.518-.484-3.518a9.337,9.337,0,0,0-5.734,4.139s1.661.925,3.186,1.57c1.063.451,1.854.873,2.565.359Z" transform="translate(-0.001 -0.36)" fill="#333"/>
    </g>
  </g>
</svg>
